M48
; DRILL file KiCad 10.0.3 date 2026-06-19T18:46:12
; FORMAT={-:-/ absolute / metric / decimal}
; #@! TF.CreationDate,2026-06-19T18:46:12+07:00
; #@! TF.GenerationSoftware,Kicad,Pcbnew,10.0.3
; #@! TF.FileFunction,Plated,1,2,PTH
FMAT,2
METRIC
; #@! TA.AperFunction,Plated,PTH,ViaDrill
T1C0.300
; #@! TA.AperFunction,Plated,PTH,ComponentDrill
T2C1.016
%
G90
G05
T1
X105.57Y-138.74
X105.94Y-131.49
X106.68Y-113.68
X106.97Y-120.65
X107.04Y-130.47
X107.7Y-130.97
X107.88Y-118.28
X110.86Y-131.6
X111.47Y-128.33
X112.49Y-131.45
X113.26Y-129.11
X113.55Y-118.35
X113.75Y-130.68
X115.9Y-119.78
X116.08Y-136.52
X116.1Y-117.39
X116.17Y-115.88
X117.31Y-136.52
X117.43Y-125.44
X118.3Y-120.89
X119.49Y-136.33
X120.81Y-124.6
X121.87Y-136.41
X129.03Y-125.89
X133.73Y-139.31
T2
X101.83Y-114.71
X101.83Y-117.25
X101.83Y-119.79
X101.83Y-122.33
X101.83Y-124.87
X101.83Y-127.41
X101.83Y-129.95
X101.83Y-132.49
X101.83Y-135.03
X101.83Y-137.57
M30
