%TF.GenerationSoftware,KiCad,Pcbnew,10.0.3*%
%TF.CreationDate,2026-06-19T18:46:09+07:00*%
%TF.ProjectId,sEMG_v1,73454d47-5f76-4312-9e6b-696361645f70,rev?*%
%TF.SameCoordinates,Original*%
%TF.FileFunction,Copper,L1,Top*%
%TF.FilePolarity,Positive*%
%FSLAX46Y46*%
G04 Gerber Fmt 4.6, Leading zero omitted, Abs format (unit mm)*
G04 Created by KiCad (PCBNEW 10.0.3) date 2026-06-19 18:46:09*
%MOMM*%
%LPD*%
G01*
G04 APERTURE LIST*
G04 Aperture macros list*
%AMRoundRect*
0 Rectangle with rounded corners*
0 $1 Rounding radius*
0 $2 $3 $4 $5 $6 $7 $8 $9 X,Y pos of 4 corners*
0 Add a 4 corners polygon primitive as box body*
4,1,4,$2,$3,$4,$5,$6,$7,$8,$9,$2,$3,0*
0 Add four circle primitives for the rounded corners*
1,1,$1+$1,$2,$3*
1,1,$1+$1,$4,$5*
1,1,$1+$1,$6,$7*
1,1,$1+$1,$8,$9*
0 Add four rect primitives between the rounded corners*
20,1,$1+$1,$2,$3,$4,$5,0*
20,1,$1+$1,$4,$5,$6,$7,0*
20,1,$1+$1,$6,$7,$8,$9,0*
20,1,$1+$1,$8,$9,$2,$3,0*%
G04 Aperture macros list end*
%TA.AperFunction,Conductor*%
%ADD10C,0.200000*%
%TD*%
%TA.AperFunction,SMDPad,CuDef*%
%ADD11RoundRect,0.250000X-0.450000X0.262500X-0.450000X-0.262500X0.450000X-0.262500X0.450000X0.262500X0*%
%TD*%
%TA.AperFunction,SMDPad,CuDef*%
%ADD12RoundRect,0.085000X-0.340000X-0.365000X0.340000X-0.365000X0.340000X0.365000X-0.340000X0.365000X0*%
%TD*%
%TA.AperFunction,SMDPad,CuDef*%
%ADD13RoundRect,0.085000X-0.365000X0.340000X-0.365000X-0.340000X0.365000X-0.340000X0.365000X0.340000X0*%
%TD*%
%TA.AperFunction,SMDPad,CuDef*%
%ADD14RoundRect,0.085000X0.365000X-0.340000X0.365000X0.340000X-0.365000X0.340000X-0.365000X-0.340000X0*%
%TD*%
%TA.AperFunction,SMDPad,CuDef*%
%ADD15RoundRect,0.150000X-0.350000X-0.525000X0.350000X-0.525000X0.350000X0.525000X-0.350000X0.525000X0*%
%TD*%
%TA.AperFunction,SMDPad,CuDef*%
%ADD16O,1.570000X0.280000*%
%TD*%
%TA.AperFunction,SMDPad,CuDef*%
%ADD17O,0.280000X1.570000*%
%TD*%
%TA.AperFunction,SMDPad,CuDef*%
%ADD18RoundRect,0.250000X0.450000X-0.262500X0.450000X0.262500X-0.450000X0.262500X-0.450000X-0.262500X0*%
%TD*%
%TA.AperFunction,SMDPad,CuDef*%
%ADD19R,0.800000X0.900000*%
%TD*%
%TA.AperFunction,SMDPad,CuDef*%
%ADD20R,0.850000X0.900000*%
%TD*%
%TA.AperFunction,SMDPad,CuDef*%
%ADD21R,1.105000X0.622500*%
%TD*%
%TA.AperFunction,SMDPad,CuDef*%
%ADD22R,1.250000X1.100000*%
%TD*%
%TA.AperFunction,SMDPad,CuDef*%
%ADD23R,2.800000X2.200000*%
%TD*%
%TA.AperFunction,SMDPad,CuDef*%
%ADD24R,2.800000X2.000000*%
%TD*%
%TA.AperFunction,SMDPad,CuDef*%
%ADD25R,2.800000X2.800000*%
%TD*%
%TA.AperFunction,SMDPad,CuDef*%
%ADD26R,2.800000X2.600000*%
%TD*%
%TA.AperFunction,SMDPad,CuDef*%
%ADD27RoundRect,0.085000X0.340000X0.365000X-0.340000X0.365000X-0.340000X-0.365000X0.340000X-0.365000X0*%
%TD*%
%TA.AperFunction,SMDPad,CuDef*%
%ADD28RoundRect,0.150000X0.525000X-0.350000X0.525000X0.350000X-0.525000X0.350000X-0.525000X-0.350000X0*%
%TD*%
%TA.AperFunction,ComponentPad*%
%ADD29O,3.251200X1.625600*%
%TD*%
%TA.AperFunction,ViaPad*%
%ADD30C,0.600000*%
%TD*%
%TA.AperFunction,Conductor*%
%ADD31C,0.304800*%
%TD*%
%TA.AperFunction,Conductor*%
%ADD32C,0.254000*%
%TD*%
%TA.AperFunction,Conductor*%
%ADD33C,1.000000*%
%TD*%
%TA.AperFunction,Conductor*%
%ADD34C,0.500000*%
%TD*%
G04 APERTURE END LIST*
D10*
%TO.N,/VCC5V*%
X109830000Y-114800000D02*
X110202500Y-114900000D01*
X110410000Y-115070000D01*
X110437939Y-115759160D01*
X110363991Y-115839919D01*
X108891368Y-115839988D01*
X108403204Y-115990742D01*
X107398756Y-115988954D01*
X107410000Y-114860000D01*
X109830000Y-114800000D01*
%TA.AperFunction,Conductor*%
G36*
X110202500Y-114900000D02*
G01*
X110410000Y-115070000D01*
X110437939Y-115759160D01*
X110363991Y-115839919D01*
X108891368Y-115839988D01*
X108403204Y-115990742D01*
X107398756Y-115988954D01*
X107410000Y-114860000D01*
X109830000Y-114800000D01*
X110202500Y-114900000D01*
G37*
%TD.AperFunction*%
%TD*%
D11*
%TO.P,R8,1*%
%TO.N,/AVSS*%
X119436000Y-126152500D03*
%TO.P,R8,2*%
%TO.N,Net-(U2-IN1P)*%
X119436000Y-127977500D03*
%TD*%
D12*
%TO.P,C11,1*%
%TO.N,/AVSS*%
X114440000Y-124240000D03*
%TO.P,C11,2*%
%TO.N,Net-(U2-VREFP)*%
X115990000Y-124240000D03*
%TD*%
D13*
%TO.P,C4,1*%
%TO.N,Net-(C4-Pad1)*%
X124616000Y-127540000D03*
%TO.P,C4,2*%
%TO.N,/AVSS*%
X124616000Y-129090000D03*
%TD*%
D14*
%TO.P,R4,1*%
%TO.N,/DP*%
X125876000Y-129090000D03*
%TO.P,R4,2*%
%TO.N,Net-(C4-Pad1)*%
X125876000Y-127540000D03*
%TD*%
D15*
%TO.P,C13,1*%
%TO.N,/AVSS*%
X109695000Y-122660000D03*
%TO.P,C13,2*%
%TO.N,/AVDD*%
X111595000Y-122660000D03*
%TD*%
D14*
%TO.P,R2,1*%
%TO.N,/AVDD*%
X115050000Y-117110000D03*
%TO.P,R2,2*%
%TO.N,/VCC3V3*%
X115050000Y-115560000D03*
%TD*%
D16*
%TO.P,U2,1,PGA1N_1*%
%TO.N,Net-(U2-PGA1N)*%
X115634000Y-131835000D03*
%TO.P,U2,2,PGA1P_2*%
%TO.N,Net-(U2-PGA1P)*%
X115634000Y-131335000D03*
%TO.P,U2,3,IN1N_3*%
%TO.N,Net-(U2-IN1N)*%
X115634000Y-130835000D03*
%TO.P,U2,4,IN1P_4*%
%TO.N,Net-(U2-IN1P)*%
X115634000Y-130335000D03*
%TO.P,U2,5,IN2N_5*%
%TO.N,/AVDD*%
X115634000Y-129835000D03*
%TO.P,U2,6,IN2P_6*%
X115634000Y-129335000D03*
%TO.P,U2,7,PGA2N_7*%
%TO.N,Net-(U2-PGA2N)*%
X115634000Y-128835000D03*
%TO.P,U2,8,PGA2P_8*%
%TO.N,Net-(U2-PGA2P)*%
X115634000Y-128335000D03*
D17*
%TO.P,U2,9,VREFP_9*%
%TO.N,Net-(U2-VREFP)*%
X114199000Y-126900000D03*
%TO.P,U2,10,VREFN_10*%
%TO.N,/AVSS*%
X113699000Y-126900000D03*
%TO.P,U2,11,VCAP1_11*%
%TO.N,Net-(U2-VCAP1)*%
X113199000Y-126900000D03*
%TO.P,U2,12,AVDD_12*%
%TO.N,/AVDD*%
X112699000Y-126900000D03*
%TO.P,U2,13,AVSS_13*%
%TO.N,/AVSS*%
X112199000Y-126900000D03*
%TO.P,U2,14,CLKSEL_14*%
%TO.N,Net-(J2-C)*%
X111699000Y-126900000D03*
%TO.P,U2,15,PWDN#/RESET#_15*%
%TO.N,/~{PWDN{slash}RESET}*%
X111199000Y-126900000D03*
%TO.P,U2,16,START_16*%
%TO.N,/START*%
X110699000Y-126900000D03*
D16*
%TO.P,U2,17,CLK_17*%
%TO.N,/CLK*%
X109264000Y-128335000D03*
%TO.P,U2,18,CS#_18*%
%TO.N,/~{CS}*%
X109264000Y-128835000D03*
%TO.P,U2,19,DIN_19*%
%TO.N,/DIN*%
X109264000Y-129335000D03*
%TO.P,U2,20,SCLK_20*%
%TO.N,/SCLK*%
X109264000Y-129835000D03*
%TO.P,U2,21,DOUT_21*%
%TO.N,/DOUT*%
X109264000Y-130335000D03*
%TO.P,U2,22,DRDY#_22*%
%TO.N,/~{DRDY}*%
X109264000Y-130835000D03*
%TO.P,U2,23,DVDD_23*%
%TO.N,/VCC3V3*%
X109264000Y-131335000D03*
%TO.P,U2,24,DGND_24*%
%TO.N,GND*%
X109264000Y-131835000D03*
D17*
%TO.P,U2,25,GPIO2/RCLK2_25*%
%TO.N,Net-(U2-GPIO2{slash}RCLK2)*%
X110699000Y-133270000D03*
%TO.P,U2,26,GPIO1/RCLK1_26*%
%TO.N,Net-(U2-GPIO1{slash}RCLK1)*%
X111199000Y-133270000D03*
%TO.P,U2,27,VCAP2_27*%
%TO.N,Net-(U2-VCAP2)*%
X111699000Y-133270000D03*
%TO.P,U2,28,RLDINV_28*%
%TO.N,Net-(U2-RLDINV)*%
X112199000Y-133270000D03*
%TO.P,U2,29,RLDIN/RLDREF_29*%
%TO.N,Net-(U2-RLDIN{slash}RLDREF)*%
X112699000Y-133270000D03*
%TO.P,U2,30,RLDOUT_30*%
%TO.N,Net-(U2-RLDOUT)*%
X113199000Y-133270000D03*
%TO.P,U2,31,RESP_MODP/IN3P_31*%
%TO.N,/AVDD*%
X113699000Y-133270000D03*
%TO.P,U2,32,RESP_MODN/IN3N_32*%
X114199000Y-133270000D03*
%TD*%
D18*
%TO.P,R6,1*%
%TO.N,/AVSS*%
X119436000Y-135002500D03*
%TO.P,R6,2*%
%TO.N,Net-(U2-IN1N)*%
X119436000Y-133177500D03*
%TD*%
D19*
%TO.P,J2,1,A_1*%
%TO.N,/VCC3V3*%
X119400000Y-119600000D03*
%TO.P,J2,2,C_2*%
%TO.N,Net-(J2-C)*%
X118300000Y-119600000D03*
D20*
%TO.P,J2,3,B_3*%
%TO.N,GND*%
X117200000Y-119600000D03*
%TD*%
D21*
%TO.P,U1,1,VIN_1*%
%TO.N,/VCC5V*%
X109650000Y-115541000D03*
%TO.P,U1,2,GND_2*%
%TO.N,GND*%
X109650000Y-116490000D03*
%TO.P,U1,3,EN_3*%
%TO.N,/VCC5V*%
X109650000Y-117440000D03*
%TO.P,U1,4,NC_4*%
%TO.N,unconnected-(U1-NC-Pad4)*%
X112250000Y-117440000D03*
%TO.P,U1,5,VOUT_5*%
%TO.N,/VCC3V3*%
X112250000Y-115541000D03*
%TD*%
D18*
%TO.P,R5,1*%
%TO.N,/AVDD*%
X121646000Y-135002500D03*
%TO.P,R5,2*%
%TO.N,Net-(U2-IN1N)*%
X121646000Y-133177500D03*
%TD*%
D14*
%TO.P,R13,1*%
%TO.N,Net-(C15-Pad2)*%
X116310000Y-138970000D03*
%TO.P,R13,2*%
%TO.N,/S*%
X116310000Y-137420000D03*
%TD*%
%TO.P,C7,1*%
%TO.N,Net-(U2-IN1N)*%
X121876000Y-131340000D03*
%TO.P,C7,2*%
%TO.N,Net-(U2-IN1P)*%
X121876000Y-129790000D03*
%TD*%
D13*
%TO.P,R12,1*%
%TO.N,Net-(U2-RLDIN{slash}RLDREF)*%
X113830000Y-137420000D03*
%TO.P,R12,2*%
%TO.N,Net-(C15-Pad2)*%
X113830000Y-138970000D03*
%TD*%
D11*
%TO.P,R7,1*%
%TO.N,/AVDD*%
X121646000Y-126152500D03*
%TO.P,R7,2*%
%TO.N,Net-(U2-IN1P)*%
X121646000Y-127977500D03*
%TD*%
D13*
%TO.P,C5,1*%
%TO.N,Net-(U2-IN1N)*%
X123346000Y-132040000D03*
%TO.P,C5,2*%
%TO.N,Net-(C3-Pad1)*%
X123346000Y-133590000D03*
%TD*%
D22*
%TO.P,D1,1,K_1*%
%TO.N,GND*%
X108200000Y-113220000D03*
%TO.P,D1,2,A_2*%
%TO.N,Net-(D1-A)*%
X110550000Y-113220000D03*
%TD*%
D14*
%TO.P,C12,1*%
%TO.N,Net-(U2-VCAP1)*%
X112990000Y-123770000D03*
%TO.P,C12,2*%
%TO.N,/AVSS*%
X112990000Y-122220000D03*
%TD*%
D11*
%TO.P,R14,1*%
%TO.N,Net-(U2-RLDINV)*%
X112100000Y-137270000D03*
%TO.P,R14,2*%
%TO.N,Net-(C15-Pad2)*%
X112100000Y-139095000D03*
%TD*%
D15*
%TO.P,C10,1*%
%TO.N,/AVSS*%
X114380000Y-122660000D03*
%TO.P,C10,2*%
%TO.N,Net-(U2-VREFP)*%
X116280000Y-122660000D03*
%TD*%
D14*
%TO.P,C17,1*%
%TO.N,GND*%
X107580000Y-134050000D03*
%TO.P,C17,2*%
%TO.N,/VCC3V3*%
X107580000Y-132500000D03*
%TD*%
D13*
%TO.P,C15,1*%
%TO.N,Net-(U2-RLDINV)*%
X110380000Y-137420000D03*
%TO.P,C15,2*%
%TO.N,Net-(C15-Pad2)*%
X110380000Y-138970000D03*
%TD*%
%TO.P,R9,1*%
%TO.N,Net-(U2-RLDOUT)*%
X115080000Y-137420000D03*
%TO.P,R9,2*%
%TO.N,Net-(C15-Pad2)*%
X115080000Y-138970000D03*
%TD*%
%TO.P,R3,1*%
%TO.N,/DN*%
X125876000Y-132040000D03*
%TO.P,R3,2*%
%TO.N,Net-(C3-Pad1)*%
X125876000Y-133590000D03*
%TD*%
D23*
%TO.P,J1,R*%
%TO.N,/DN*%
X128610000Y-137120000D03*
D24*
%TO.P,J1,RN*%
%TO.N,/RN*%
X128610000Y-139920000D03*
D23*
%TO.P,J1,S*%
%TO.N,/S*%
X136010000Y-139020000D03*
D25*
%TO.P,J1,T*%
%TO.N,/DP*%
X136010000Y-129620000D03*
D26*
%TO.P,J1,TN*%
%TO.N,/TN*%
X131560000Y-125620000D03*
%TD*%
D14*
%TO.P,R10,1*%
%TO.N,Net-(C15-Pad2)*%
X118810000Y-138970000D03*
%TO.P,R10,2*%
%TO.N,/RN*%
X118810000Y-137420000D03*
%TD*%
D27*
%TO.P,R1,1*%
%TO.N,/VCC3V3*%
X113720000Y-113260000D03*
%TO.P,R1,2*%
%TO.N,Net-(D1-A)*%
X112170000Y-113260000D03*
%TD*%
D12*
%TO.P,C9,1*%
%TO.N,Net-(U2-PGA2P)*%
X115895000Y-127070000D03*
%TO.P,C9,2*%
%TO.N,Net-(U2-PGA2N)*%
X117445000Y-127070000D03*
%TD*%
D14*
%TO.P,C3,1*%
%TO.N,Net-(C3-Pad1)*%
X124616000Y-133590000D03*
%TO.P,C3,2*%
%TO.N,/AVSS*%
X124616000Y-132040000D03*
%TD*%
D13*
%TO.P,C2,1*%
%TO.N,/VCC3V3*%
X113740000Y-115576748D03*
%TO.P,C2,2*%
%TO.N,GND*%
X113740000Y-117126748D03*
%TD*%
D12*
%TO.P,C14,1*%
%TO.N,/AVSS*%
X109870000Y-124240000D03*
%TO.P,C14,2*%
%TO.N,/AVDD*%
X111420000Y-124240000D03*
%TD*%
D14*
%TO.P,C6,1*%
%TO.N,Net-(U2-IN1P)*%
X123346000Y-129090000D03*
%TO.P,C6,2*%
%TO.N,Net-(C4-Pad1)*%
X123346000Y-127540000D03*
%TD*%
%TO.P,R11,1*%
%TO.N,Net-(C15-Pad2)*%
X117560000Y-138970000D03*
%TO.P,R11,2*%
%TO.N,/TN*%
X117560000Y-137420000D03*
%TD*%
D28*
%TO.P,C18,1*%
%TO.N,GND*%
X106030000Y-134490000D03*
%TO.P,C18,2*%
%TO.N,/VCC3V3*%
X106030000Y-132590000D03*
%TD*%
D13*
%TO.P,R17,1*%
%TO.N,Net-(U2-GPIO1{slash}RCLK1)*%
X107890000Y-137420000D03*
%TO.P,R17,2*%
%TO.N,GND*%
X107890000Y-138970000D03*
%TD*%
%TO.P,C1,1*%
%TO.N,/VCC5V*%
X108160000Y-115576748D03*
%TO.P,C1,2*%
%TO.N,GND*%
X108160000Y-117126748D03*
%TD*%
D29*
%TO.P,J3,1,Pin_1_1*%
%TO.N,/VCC5V*%
X101830000Y-114710000D03*
%TO.P,J3,2,Pin_2_2*%
%TO.N,GND*%
X101830000Y-117250000D03*
%TO.P,J3,3,Pin_3_3*%
%TO.N,/~{PWDN{slash}RESET}*%
X101830000Y-119790000D03*
%TO.P,J3,4,Pin_4_4*%
%TO.N,/START*%
X101830000Y-122330000D03*
%TO.P,J3,5,Pin_5_5*%
%TO.N,/CLK*%
X101830000Y-124870000D03*
%TO.P,J3,6,Pin_6_6*%
%TO.N,/~{CS}*%
X101830000Y-127410000D03*
%TO.P,J3,7,Pin_7_7*%
%TO.N,/DIN*%
X101830000Y-129950000D03*
%TO.P,J3,8,Pin_8_8*%
%TO.N,/SCLK*%
X101830000Y-132490000D03*
%TO.P,J3,9,Pin_9_9*%
%TO.N,/DOUT*%
X101830000Y-135030000D03*
%TO.P,J3,10,Pin_10_10*%
%TO.N,/~{DRDY}*%
X101830000Y-137570000D03*
%TD*%
D13*
%TO.P,C16,1*%
%TO.N,Net-(U2-VCAP2)*%
X109140000Y-137420000D03*
%TO.P,C16,2*%
%TO.N,/AVSS*%
X109140000Y-138970000D03*
%TD*%
D12*
%TO.P,R15,1*%
%TO.N,GND*%
X108045000Y-120900000D03*
%TO.P,R15,2*%
%TO.N,/AVSS*%
X109595000Y-120900000D03*
%TD*%
D27*
%TO.P,C8,1*%
%TO.N,Net-(U2-PGA1P)*%
X117645000Y-133795000D03*
%TO.P,C8,2*%
%TO.N,Net-(U2-PGA1N)*%
X116095000Y-133795000D03*
%TD*%
D13*
%TO.P,R16,1*%
%TO.N,Net-(U2-GPIO2{slash}RCLK2)*%
X106680000Y-137420000D03*
%TO.P,R16,2*%
%TO.N,GND*%
X106680000Y-138970000D03*
%TD*%
D30*
%TO.N,/AVSS*%
X117430000Y-125440000D03*
X113260000Y-129110000D03*
X119490000Y-136330000D03*
X112490000Y-131450000D03*
%TO.N,/AVDD*%
X113750000Y-130680000D03*
X116100000Y-117390000D03*
X121870000Y-136410000D03*
X120810000Y-124600000D03*
%TO.N,/VCC3V3*%
X105940000Y-131490000D03*
X116170000Y-115880000D03*
%TO.N,Net-(J2-C)*%
X111470000Y-128330000D03*
X118300000Y-120890000D03*
%TO.N,/DOUT*%
X107040000Y-130470000D03*
%TO.N,/~{DRDY}*%
X107700000Y-130970000D03*
%TO.N,GND*%
X113550000Y-118350000D03*
X106970000Y-120650000D03*
X115900000Y-119780000D03*
X105570000Y-138740000D03*
X106680000Y-113680000D03*
X110860000Y-131600000D03*
X107880000Y-118280000D03*
%TO.N,/S*%
X116080000Y-136520000D03*
X133730000Y-139310000D03*
%TO.N,/TN*%
X129030000Y-125890000D03*
X117310000Y-136520000D03*
%TD*%
%TO.N,/AVSS*%
D31*
X114380000Y-124180000D02*
X114440000Y-124240000D01*
D32*
X112199000Y-128259000D02*
X112570000Y-128630000D01*
X114440000Y-124240000D02*
X114440000Y-124830000D01*
D31*
X109870000Y-124240000D02*
X109870000Y-122835000D01*
D32*
X113699000Y-126900000D02*
X113699000Y-128191000D01*
X111370000Y-125100000D02*
X112199000Y-125929000D01*
X109870000Y-124910000D02*
X110060000Y-125100000D01*
X110060000Y-125100000D02*
X111370000Y-125100000D01*
X113699000Y-125571000D02*
X113699000Y-126900000D01*
X112199000Y-125929000D02*
X112199000Y-126900000D01*
D31*
X113940000Y-122220000D02*
X114380000Y-122660000D01*
X114380000Y-122660000D02*
X114380000Y-124180000D01*
X109870000Y-122835000D02*
X109695000Y-122660000D01*
D32*
X113260000Y-128630000D02*
X112570000Y-128630000D01*
X112199000Y-126900000D02*
X112199000Y-128259000D01*
X113699000Y-128191000D02*
X113260000Y-128630000D01*
X114440000Y-124830000D02*
X113699000Y-125571000D01*
X109870000Y-124240000D02*
X109870000Y-124910000D01*
%TO.N,Net-(U2-IN1P)*%
D10*
X121646000Y-129560000D02*
X121876000Y-129790000D01*
X123346000Y-129090000D02*
X123346000Y-129524000D01*
D32*
X115634000Y-130335000D02*
X117078500Y-130335000D01*
D10*
X121646000Y-127977500D02*
X121646000Y-129560000D01*
X123346000Y-129524000D02*
X123080000Y-129790000D01*
D32*
X117078500Y-130335000D02*
X119436000Y-127977500D01*
D10*
X121646000Y-127977500D02*
X119436000Y-127977500D01*
X123080000Y-129790000D02*
X121876000Y-129790000D01*
%TO.N,Net-(U2-VREFP)*%
D32*
X114580000Y-126900000D02*
X114199000Y-126900000D01*
X115990000Y-125490000D02*
X114580000Y-126900000D01*
X116280000Y-123950000D02*
X115990000Y-124240000D01*
X115990000Y-124240000D02*
X115990000Y-125490000D01*
X116280000Y-122660000D02*
X116280000Y-123950000D01*
%TO.N,Net-(C4-Pad1)*%
D10*
X124616000Y-127540000D02*
X125876000Y-127540000D01*
X123346000Y-127540000D02*
X124616000Y-127540000D01*
%TO.N,/DP*%
X125876000Y-129090000D02*
X135480000Y-129090000D01*
X135480000Y-129090000D02*
X136010000Y-129620000D01*
%TO.N,/AVDD*%
D31*
X121646000Y-126152500D02*
X121646000Y-125436000D01*
X115050000Y-118140000D02*
X111595000Y-121595000D01*
D32*
X113750000Y-130680000D02*
X113760000Y-130680000D01*
D31*
X121646000Y-125436000D02*
X120810000Y-124600000D01*
D32*
X112699000Y-126900000D02*
X112699000Y-125019000D01*
D31*
X121646000Y-135002500D02*
X121646000Y-136186000D01*
D32*
X115634000Y-129835000D02*
X115634000Y-129335000D01*
D31*
X111595000Y-122660000D02*
X111595000Y-124065000D01*
D32*
X113699000Y-130731000D02*
X113750000Y-130680000D01*
D31*
X115820000Y-117110000D02*
X116100000Y-117390000D01*
X115050000Y-117110000D02*
X115820000Y-117110000D01*
D32*
X113699000Y-133270000D02*
X113699000Y-130731000D01*
D31*
X111595000Y-121595000D02*
X111595000Y-122660000D01*
X111595000Y-124065000D02*
X111420000Y-124240000D01*
X115050000Y-117110000D02*
X115050000Y-118140000D01*
X121646000Y-136186000D02*
X121870000Y-136410000D01*
D32*
X114199000Y-133270000D02*
X113699000Y-133270000D01*
X115629000Y-129840000D02*
X115634000Y-129835000D01*
X112699000Y-125019000D02*
X111920000Y-124240000D01*
X113760000Y-130680000D02*
X114600000Y-129840000D01*
X114600000Y-129840000D02*
X115629000Y-129840000D01*
X111920000Y-124240000D02*
X111420000Y-124240000D01*
%TO.N,/VCC3V3*%
D31*
X119400000Y-119600000D02*
X119400000Y-118650000D01*
X109264000Y-131335000D02*
X108257633Y-131335000D01*
X106030000Y-132590000D02*
X107490000Y-132590000D01*
X107430000Y-132690000D02*
X107480000Y-132640000D01*
X115050000Y-115560000D02*
X115850000Y-115560000D01*
X115850000Y-115560000D02*
X116170000Y-115880000D01*
X113740000Y-115576748D02*
X113740000Y-113280000D01*
X113740000Y-113280000D02*
X113720000Y-113260000D01*
X113704252Y-115541000D02*
X113740000Y-115576748D01*
X115033252Y-115576748D02*
X115050000Y-115560000D01*
X112250000Y-115541000D02*
X113704252Y-115541000D01*
X108257633Y-131335000D02*
X107580000Y-132012633D01*
X113740000Y-115576748D02*
X115033252Y-115576748D01*
X107330000Y-132690000D02*
X107490000Y-132530000D01*
X105940000Y-132500000D02*
X106030000Y-132590000D01*
X105940000Y-131490000D02*
X105940000Y-132500000D01*
X119400000Y-118650000D02*
X116630000Y-115880000D01*
X107490000Y-132590000D02*
X107580000Y-132500000D01*
X105930000Y-131500000D02*
X105940000Y-131490000D01*
X107580000Y-132012633D02*
X107580000Y-132500000D01*
X116630000Y-115880000D02*
X116170000Y-115880000D01*
%TO.N,Net-(U2-PGA1N)*%
D32*
X116095000Y-132945000D02*
X116095000Y-133795000D01*
X115634000Y-131835000D02*
X115634000Y-132484000D01*
X115634000Y-132484000D02*
X116095000Y-132945000D01*
%TO.N,Net-(U2-PGA1P)*%
X117645000Y-133795000D02*
X117645000Y-132307000D01*
X116673000Y-131335000D02*
X115634000Y-131335000D01*
X117645000Y-132307000D02*
X116673000Y-131335000D01*
%TO.N,Net-(U2-IN1N)*%
D10*
X123080000Y-131340000D02*
X121876000Y-131340000D01*
X119436000Y-133177500D02*
X121646000Y-133177500D01*
X123346000Y-131606000D02*
X123080000Y-131340000D01*
X123346000Y-132040000D02*
X123346000Y-131606000D01*
X121646000Y-133177500D02*
X121646000Y-131570000D01*
D32*
X115634000Y-130835000D02*
X117093500Y-130835000D01*
X117093500Y-130835000D02*
X119436000Y-133177500D01*
D10*
X121646000Y-131570000D02*
X121876000Y-131340000D01*
%TO.N,Net-(U2-PGA2N)*%
D32*
X117445000Y-127895438D02*
X116505438Y-128835000D01*
X117445000Y-127070000D02*
X117445000Y-127895438D01*
X116505438Y-128835000D02*
X115634000Y-128835000D01*
%TO.N,Net-(U2-PGA2P)*%
X115634000Y-127331000D02*
X115634000Y-128335000D01*
X115895000Y-127070000D02*
X115634000Y-127331000D01*
%TO.N,Net-(U2-VCAP1)*%
X113199000Y-123979000D02*
X112990000Y-123770000D01*
X113199000Y-126900000D02*
X113199000Y-123979000D01*
%TO.N,Net-(J2-C)*%
X111699000Y-128101000D02*
X111470000Y-128330000D01*
X111699000Y-126900000D02*
X111699000Y-128101000D01*
X118300000Y-119600000D02*
X118300000Y-120890000D01*
%TO.N,/~{PWDN{slash}RESET}*%
D31*
X111199000Y-125809000D02*
X111000000Y-125610000D01*
X111000000Y-125610000D02*
X109470000Y-125610000D01*
X111199000Y-126900000D02*
X111199000Y-125809000D01*
X103650000Y-119790000D02*
X101830000Y-119790000D01*
X109470000Y-125610000D02*
X103650000Y-119790000D01*
%TO.N,/START*%
D32*
X104720000Y-122330000D02*
X109290000Y-126900000D01*
X109290000Y-126900000D02*
X110699000Y-126900000D01*
X101830000Y-122330000D02*
X104720000Y-122330000D01*
%TO.N,/CLK*%
X109264000Y-127914000D02*
X109264000Y-128335000D01*
X101830000Y-124870000D02*
X106220000Y-124870000D01*
X106220000Y-124870000D02*
X109264000Y-127914000D01*
%TO.N,/~{CS}*%
X108205000Y-128835000D02*
X109264000Y-128835000D01*
X106780000Y-127410000D02*
X108205000Y-128835000D01*
X101830000Y-127410000D02*
X106780000Y-127410000D01*
%TO.N,/DIN*%
X103900000Y-129950000D02*
X105190000Y-128660000D01*
X107230000Y-128660000D02*
X107905000Y-129335000D01*
X105190000Y-128660000D02*
X107230000Y-128660000D01*
X107905000Y-129335000D02*
X109264000Y-129335000D01*
X101830000Y-129950000D02*
X103900000Y-129950000D01*
X109231000Y-129368000D02*
X109264000Y-129335000D01*
%TO.N,/SCLK*%
X104810000Y-130550000D02*
X104810000Y-131660000D01*
X104810000Y-131660000D02*
X103980000Y-132490000D01*
X105880000Y-129480000D02*
X104810000Y-130550000D01*
X107565000Y-129835000D02*
X107210000Y-129480000D01*
X103980000Y-132490000D02*
X101830000Y-132490000D01*
X107210000Y-129480000D02*
X105880000Y-129480000D01*
X109264000Y-129835000D02*
X107565000Y-129835000D01*
%TO.N,/DOUT*%
X109264000Y-130335000D02*
X107175000Y-130335000D01*
X107175000Y-130335000D02*
X107040000Y-130470000D01*
%TO.N,/~{DRDY}*%
X109264000Y-130835000D02*
X107835000Y-130835000D01*
X107835000Y-130835000D02*
X107700000Y-130970000D01*
%TO.N,GND*%
X110625000Y-131835000D02*
X109264000Y-131835000D01*
X107580000Y-134050000D02*
X109264000Y-132366000D01*
D31*
X108290000Y-116490000D02*
X108160000Y-116620000D01*
X108160000Y-116620000D02*
X108160000Y-117126748D01*
X107220000Y-120900000D02*
X106970000Y-120650000D01*
X108160000Y-117126748D02*
X108160000Y-118000000D01*
X116080000Y-119600000D02*
X115900000Y-119780000D01*
D32*
X109264000Y-132366000D02*
X109264000Y-131835000D01*
D31*
X108160000Y-118000000D02*
X107880000Y-118280000D01*
X105800000Y-138970000D02*
X106680000Y-138970000D01*
X113740000Y-117126748D02*
X113740000Y-118160000D01*
X117200000Y-119600000D02*
X116080000Y-119600000D01*
X108200000Y-113220000D02*
X107140000Y-113220000D01*
X107580000Y-134050000D02*
X106470000Y-134050000D01*
X105570000Y-138740000D02*
X105800000Y-138970000D01*
X106680000Y-138970000D02*
X107890000Y-138970000D01*
X106470000Y-134050000D02*
X106030000Y-134490000D01*
D32*
X110860000Y-131600000D02*
X110625000Y-131835000D01*
D31*
X107140000Y-113220000D02*
X106680000Y-113680000D01*
X109650000Y-116490000D02*
X108290000Y-116490000D01*
X108045000Y-120900000D02*
X107220000Y-120900000D01*
X113740000Y-118160000D02*
X113550000Y-118350000D01*
%TO.N,Net-(U2-GPIO2{slash}RCLK2)*%
D32*
X106680000Y-136830000D02*
X110240000Y-133270000D01*
X110240000Y-133270000D02*
X110699000Y-133270000D01*
X106680000Y-137420000D02*
X106680000Y-136830000D01*
%TO.N,Net-(U2-GPIO1{slash}RCLK1)*%
X110100000Y-135250000D02*
X109400000Y-135250000D01*
X111199000Y-133270000D02*
X111199000Y-134151000D01*
X107890000Y-136760000D02*
X107890000Y-137420000D01*
X109400000Y-135250000D02*
X107890000Y-136760000D01*
X111199000Y-134151000D02*
X110100000Y-135250000D01*
%TO.N,Net-(U2-VCAP2)*%
X110286000Y-135704000D02*
X109140000Y-136850000D01*
X111699000Y-134291000D02*
X111653000Y-134337000D01*
X111699000Y-133270000D02*
X111699000Y-134291000D01*
X110288052Y-135704000D02*
X110286000Y-135704000D01*
X111653000Y-134339052D02*
X110288052Y-135704000D01*
X111653000Y-134337000D02*
X111653000Y-134339052D01*
X109140000Y-136850000D02*
X109140000Y-137420000D01*
%TO.N,Net-(U2-RLDINV)*%
D31*
X110380000Y-137420000D02*
X111950000Y-137420000D01*
X111950000Y-137420000D02*
X112100000Y-137270000D01*
D32*
X111779000Y-136949000D02*
X112100000Y-137270000D01*
X112199000Y-133270000D02*
X112199000Y-137171000D01*
X112199000Y-137171000D02*
X112100000Y-137270000D01*
%TO.N,Net-(U2-RLDIN{slash}RLDREF)*%
X113830000Y-135830000D02*
X113830000Y-136670000D01*
X112699000Y-133270000D02*
X112699000Y-134699000D01*
X113830000Y-136670000D02*
X113830000Y-137420000D01*
X112699000Y-134699000D02*
X113830000Y-135830000D01*
%TO.N,Net-(U2-RLDOUT)*%
X115080000Y-136920000D02*
X115080000Y-137420000D01*
X113199000Y-134199000D02*
X115080000Y-136080000D01*
X115080000Y-136080000D02*
X115080000Y-136920000D01*
X113199000Y-133270000D02*
X113199000Y-134199000D01*
%TO.N,/VCC5V*%
D33*
X105626748Y-115576748D02*
X108160000Y-115576748D01*
D34*
X110761000Y-115541000D02*
X109650000Y-115541000D01*
D33*
X104760000Y-114710000D02*
X105626748Y-115576748D01*
X101830000Y-114710000D02*
X104760000Y-114710000D01*
D34*
X109650000Y-117440000D02*
X110702500Y-117440000D01*
X111170000Y-115950000D02*
X110761000Y-115541000D01*
X111170000Y-116972500D02*
X111170000Y-115950000D01*
X110702500Y-117440000D02*
X111170000Y-116972500D01*
%TO.N,Net-(C15-Pad2)*%
D31*
X115080000Y-138970000D02*
X116310000Y-138970000D01*
X117560000Y-138970000D02*
X118810000Y-138970000D01*
X111975000Y-138970000D02*
X112100000Y-139095000D01*
X110380000Y-138970000D02*
X111975000Y-138970000D01*
X113705000Y-139095000D02*
X113830000Y-138970000D01*
X113830000Y-138970000D02*
X115080000Y-138970000D01*
X112100000Y-139095000D02*
X113705000Y-139095000D01*
X116310000Y-138970000D02*
X117560000Y-138970000D01*
%TO.N,/S*%
X116310000Y-137420000D02*
X116310000Y-136750000D01*
X134020000Y-139020000D02*
X133730000Y-139310000D01*
X116310000Y-136750000D02*
X116080000Y-136520000D01*
X136010000Y-139020000D02*
X134020000Y-139020000D01*
%TO.N,Net-(C3-Pad1)*%
D10*
X125876000Y-133590000D02*
X124616000Y-133590000D01*
X124616000Y-133590000D02*
X123346000Y-133590000D01*
%TO.N,Net-(D1-A)*%
D31*
X112170000Y-113260000D02*
X110590000Y-113260000D01*
X110590000Y-113260000D02*
X110550000Y-113220000D01*
%TO.N,/DN*%
D10*
X125876000Y-131244000D02*
X125876000Y-132040000D01*
X128610000Y-132534421D02*
X128610000Y-132414421D01*
X128610000Y-131380000D02*
X128220000Y-130990000D01*
X126130000Y-130990000D02*
X125876000Y-131244000D01*
X128923100Y-132774421D02*
X128850000Y-132774421D01*
X128610000Y-132414421D02*
X128610000Y-132124999D01*
X128220000Y-130990000D02*
X126130000Y-130990000D01*
X128610000Y-137120000D02*
X128610000Y-133614421D01*
X128850000Y-133374421D02*
X128923100Y-133374421D01*
X128610000Y-132124999D02*
X128610000Y-131380000D01*
X129163100Y-133134421D02*
X129163100Y-133014421D01*
X128610000Y-133614421D02*
G75*
G02*
X128850000Y-133374400I240000J21D01*
G01*
X129163100Y-133014421D02*
G75*
G03*
X128923100Y-132774400I-240000J21D01*
G01*
X128923100Y-133374421D02*
G75*
G03*
X129163121Y-133134421I0J240021D01*
G01*
X128850000Y-132774421D02*
G75*
G02*
X128609979Y-132534421I0J240021D01*
G01*
%TO.N,/RN*%
D31*
X120220000Y-137420000D02*
X118810000Y-137420000D01*
X122720000Y-139920000D02*
X120220000Y-137420000D01*
X128610000Y-139920000D02*
X122720000Y-139920000D01*
%TO.N,/TN*%
X131560000Y-125620000D02*
X129300000Y-125620000D01*
X117540000Y-137420000D02*
X117540000Y-136750000D01*
X129300000Y-125620000D02*
X129030000Y-125890000D01*
%TD*%
%TA.AperFunction,Conductor*%
%TO.N,/AVSS*%
G36*
X118107081Y-111429880D02*
G01*
X118174083Y-111449692D01*
X118207057Y-111480849D01*
X120516325Y-114649571D01*
X126570890Y-122957500D01*
X126579999Y-122969998D01*
X126580000Y-122970000D01*
X140197352Y-122912730D01*
X140264472Y-122932133D01*
X140310449Y-122984744D01*
X140321871Y-123036208D01*
X140399138Y-141408809D01*
X140379735Y-141475930D01*
X140327124Y-141521907D01*
X140258008Y-141532141D01*
X140218845Y-141519815D01*
X140062450Y-141440129D01*
X140062447Y-141440128D01*
X140062445Y-141440127D01*
X139897701Y-141386598D01*
X139897699Y-141386597D01*
X139897698Y-141386597D01*
X139753716Y-141363793D01*
X139726611Y-141359500D01*
X139553389Y-141359500D01*
X139526284Y-141363793D01*
X139382302Y-141386597D01*
X139217552Y-141440128D01*
X139063211Y-141518768D01*
X139005652Y-141560588D01*
X138923072Y-141620586D01*
X138923070Y-141620588D01*
X138923069Y-141620588D01*
X138800588Y-141743069D01*
X138800588Y-141743070D01*
X138800586Y-141743072D01*
X138756859Y-141803256D01*
X138698768Y-141883211D01*
X138620128Y-142037552D01*
X138566597Y-142202302D01*
X138551282Y-142298998D01*
X138539500Y-142373389D01*
X138539500Y-142546611D01*
X138566598Y-142717701D01*
X138620127Y-142882445D01*
X138698768Y-143036788D01*
X138800586Y-143176928D01*
X138800588Y-143176930D01*
X138819141Y-143195483D01*
X138852626Y-143256806D01*
X138847642Y-143326498D01*
X138805770Y-143382431D01*
X138740306Y-143406848D01*
X138731155Y-143407164D01*
X101358386Y-143315245D01*
X101291395Y-143295395D01*
X101245770Y-143242479D01*
X101235997Y-143173296D01*
X101258373Y-143118359D01*
X101259409Y-143116932D01*
X101259414Y-143116928D01*
X101361232Y-142976788D01*
X101439873Y-142822445D01*
X101493402Y-142657701D01*
X101520500Y-142486611D01*
X101520500Y-142313389D01*
X101493402Y-142142299D01*
X101439873Y-141977555D01*
X101361232Y-141823212D01*
X101259414Y-141683072D01*
X101136928Y-141560586D01*
X100996788Y-141458768D01*
X100842445Y-141380127D01*
X100677701Y-141326598D01*
X100677699Y-141326597D01*
X100677698Y-141326597D01*
X100546271Y-141305781D01*
X100506611Y-141299500D01*
X100333389Y-141299500D01*
X100293728Y-141305781D01*
X100162302Y-141326597D01*
X100162299Y-141326598D01*
X100047826Y-141363793D01*
X99997552Y-141380128D01*
X99843211Y-141458768D01*
X99720076Y-141548232D01*
X99654269Y-141571712D01*
X99586215Y-141555887D01*
X99537520Y-141505781D01*
X99523191Y-141448383D01*
X99523061Y-141414091D01*
X99510019Y-137964674D01*
X99529450Y-137897563D01*
X99582080Y-137851609D01*
X99651201Y-137841404D01*
X99714866Y-137870189D01*
X99751949Y-137925889D01*
X99800116Y-138074129D01*
X99800117Y-138074132D01*
X99893965Y-138258319D01*
X100015471Y-138425558D01*
X100161642Y-138571729D01*
X100328881Y-138693235D01*
X100458759Y-138759411D01*
X100513070Y-138787084D01*
X100709664Y-138850961D01*
X100709665Y-138850961D01*
X100709668Y-138850962D01*
X100913841Y-138883300D01*
X100913842Y-138883300D01*
X102746158Y-138883300D01*
X102746159Y-138883300D01*
X102950332Y-138850962D01*
X102950335Y-138850961D01*
X102950336Y-138850961D01*
X103146929Y-138787084D01*
X103146929Y-138787083D01*
X103146932Y-138787083D01*
X103331119Y-138693235D01*
X103498358Y-138571729D01*
X103644529Y-138425558D01*
X103766035Y-138258319D01*
X103859883Y-138074132D01*
X103860283Y-138072900D01*
X103923761Y-137877536D01*
X103923761Y-137877535D01*
X103923762Y-137877532D01*
X103956100Y-137673359D01*
X103956100Y-137466641D01*
X103923762Y-137262468D01*
X103923761Y-137262464D01*
X103923761Y-137262463D01*
X103859884Y-137065870D01*
X103847532Y-137041627D01*
X103766035Y-136881681D01*
X103644529Y-136714442D01*
X103498358Y-136568271D01*
X103331119Y-136446765D01*
X103259914Y-136410484D01*
X103209119Y-136362511D01*
X103192324Y-136294690D01*
X103214861Y-136228555D01*
X103259914Y-136189515D01*
X103331119Y-136153235D01*
X103498358Y-136031729D01*
X103644529Y-135885558D01*
X103766035Y-135718319D01*
X103859883Y-135534132D01*
X103889902Y-135441744D01*
X103923761Y-135337536D01*
X103923761Y-135337535D01*
X103923762Y-135337532D01*
X103956100Y-135133359D01*
X103956100Y-134926641D01*
X103923762Y-134722468D01*
X103923761Y-134722464D01*
X103923761Y-134722463D01*
X103859884Y-134525870D01*
X103829460Y-134466159D01*
X103766035Y-134341681D01*
X103644529Y-134174442D01*
X103498358Y-134028271D01*
X103331119Y-133906765D01*
X103259914Y-133870484D01*
X103209119Y-133822511D01*
X103192324Y-133754690D01*
X103214861Y-133688555D01*
X103259914Y-133649515D01*
X103331119Y-133613235D01*
X103498358Y-133491729D01*
X103644529Y-133345558D01*
X103766035Y-133178319D01*
X103766038Y-133178313D01*
X103767016Y-133176718D01*
X103767547Y-133176236D01*
X103768899Y-133174377D01*
X103769289Y-133174660D01*
X103818824Y-133129839D01*
X103872748Y-133117500D01*
X104041804Y-133117500D01*
X104041805Y-133117499D01*
X104163035Y-133093386D01*
X104243784Y-133059937D01*
X104277233Y-133046083D01*
X104380008Y-132977411D01*
X104467411Y-132890008D01*
X104642819Y-132714600D01*
X104704142Y-132681115D01*
X104773834Y-132686099D01*
X104829767Y-132727971D01*
X104854184Y-132793435D01*
X104854500Y-132802281D01*
X104854500Y-133005701D01*
X104857401Y-133042567D01*
X104857402Y-133042573D01*
X104903254Y-133200393D01*
X104903255Y-133200396D01*
X104903256Y-133200398D01*
X104940681Y-133263681D01*
X104986917Y-133341862D01*
X104986923Y-133341870D01*
X105097372Y-133452319D01*
X105130857Y-133513642D01*
X105125873Y-133583334D01*
X105097372Y-133627681D01*
X104986923Y-133738129D01*
X104986917Y-133738137D01*
X104903255Y-133879603D01*
X104903254Y-133879606D01*
X104857402Y-134037426D01*
X104857401Y-134037432D01*
X104854500Y-134074298D01*
X104854500Y-134905701D01*
X104857401Y-134942567D01*
X104857402Y-134942573D01*
X104903254Y-135100393D01*
X104903255Y-135100396D01*
X104986917Y-135241862D01*
X104986923Y-135241870D01*
X105103129Y-135358076D01*
X105103133Y-135358079D01*
X105103135Y-135358081D01*
X105244602Y-135441744D01*
X105262731Y-135447011D01*
X105402426Y-135487597D01*
X105402429Y-135487597D01*
X105402431Y-135487598D01*
X105439306Y-135490500D01*
X105439314Y-135490500D01*
X106620686Y-135490500D01*
X106620694Y-135490500D01*
X106657569Y-135487598D01*
X106657571Y-135487597D01*
X106657573Y-135487597D01*
X106711546Y-135471916D01*
X106815398Y-135441744D01*
X106864893Y-135412472D01*
X106932616Y-135395290D01*
X106998878Y-135417450D01*
X107042642Y-135471916D01*
X107050011Y-135541396D01*
X107018647Y-135603830D01*
X107015694Y-135606886D01*
X106283324Y-136339256D01*
X106283317Y-136339263D01*
X106279992Y-136342589D01*
X106192589Y-136429992D01*
X106147466Y-136497521D01*
X106142598Y-136503193D01*
X106119308Y-136518313D01*
X106097998Y-136536123D01*
X106095963Y-136536987D01*
X106019727Y-136568565D01*
X106019724Y-136568566D01*
X106019724Y-136568567D01*
X105897417Y-136662417D01*
X105817091Y-136767100D01*
X105803565Y-136784727D01*
X105744572Y-136927150D01*
X105744571Y-136927154D01*
X105729500Y-137041619D01*
X105729500Y-137798374D01*
X105729625Y-137799316D01*
X105729580Y-137799598D01*
X105729766Y-137802422D01*
X105729134Y-137802463D01*
X105718859Y-137868351D01*
X105672478Y-137920606D01*
X105606686Y-137939500D01*
X105491155Y-137939500D01*
X105336510Y-137970261D01*
X105336498Y-137970264D01*
X105190827Y-138030602D01*
X105190814Y-138030609D01*
X105059711Y-138118210D01*
X105059707Y-138118213D01*
X104948213Y-138229707D01*
X104948210Y-138229711D01*
X104860609Y-138360814D01*
X104860602Y-138360827D01*
X104800264Y-138506498D01*
X104800261Y-138506510D01*
X104769500Y-138661153D01*
X104769500Y-138818846D01*
X104800261Y-138973489D01*
X104800264Y-138973501D01*
X104860602Y-139119172D01*
X104860609Y-139119185D01*
X104948210Y-139250288D01*
X104948213Y-139250292D01*
X105059707Y-139361786D01*
X105059711Y-139361789D01*
X105190814Y-139449390D01*
X105190827Y-139449397D01*
X105223304Y-139462849D01*
X105336503Y-139509737D01*
X105449124Y-139532138D01*
X105484736Y-139546892D01*
X105485363Y-139545720D01*
X105490732Y-139548589D01*
X105490736Y-139548592D01*
X105609556Y-139597809D01*
X105609560Y-139597809D01*
X105609561Y-139597810D01*
X105735692Y-139622900D01*
X105735695Y-139622900D01*
X105755940Y-139622900D01*
X105822979Y-139642585D01*
X105854315Y-139671413D01*
X105897413Y-139727579D01*
X105897415Y-139727580D01*
X105897417Y-139727583D01*
X106019724Y-139821433D01*
X106162154Y-139880429D01*
X106276627Y-139895500D01*
X107083372Y-139895499D01*
X107197846Y-139880429D01*
X107237548Y-139863983D01*
X107307013Y-139856514D01*
X107332450Y-139863982D01*
X107372154Y-139880429D01*
X107486627Y-139895500D01*
X108293372Y-139895499D01*
X108407846Y-139880429D01*
X108550276Y-139821433D01*
X108672583Y-139727583D01*
X108766433Y-139605276D01*
X108825429Y-139462846D01*
X108840500Y-139348373D01*
X108840499Y-138591628D01*
X108837879Y-138571729D01*
X108826552Y-138485683D01*
X108837318Y-138416648D01*
X108883698Y-138364393D01*
X108949491Y-138345499D01*
X109320509Y-138345499D01*
X109387548Y-138365184D01*
X109433303Y-138417988D01*
X109443448Y-138485685D01*
X109429500Y-138591619D01*
X109429500Y-139348372D01*
X109444571Y-139462847D01*
X109503565Y-139605272D01*
X109503567Y-139605276D01*
X109597417Y-139727583D01*
X109719724Y-139821433D01*
X109862154Y-139880429D01*
X109976627Y-139895500D01*
X110783372Y-139895499D01*
X110897846Y-139880429D01*
X110972419Y-139849539D01*
X111041888Y-139842071D01*
X111104367Y-139873346D01*
X111107552Y-139876420D01*
X111181344Y-139950212D01*
X111330666Y-140042314D01*
X111497203Y-140097499D01*
X111599991Y-140108000D01*
X112600008Y-140107999D01*
X112600016Y-140107998D01*
X112600019Y-140107998D01*
X112656302Y-140102248D01*
X112702797Y-140097499D01*
X112869334Y-140042314D01*
X113018656Y-139950212D01*
X113095379Y-139873488D01*
X113156698Y-139840006D01*
X113226390Y-139844990D01*
X113230509Y-139846611D01*
X113244418Y-139852372D01*
X113312154Y-139880429D01*
X113426627Y-139895500D01*
X114233372Y-139895499D01*
X114347846Y-139880429D01*
X114407550Y-139855698D01*
X114477016Y-139848230D01*
X114502443Y-139855695D01*
X114562154Y-139880429D01*
X114676627Y-139895500D01*
X115483372Y-139895499D01*
X115597846Y-139880429D01*
X115647547Y-139859841D01*
X115717015Y-139852372D01*
X115742451Y-139859841D01*
X115792154Y-139880429D01*
X115906627Y-139895500D01*
X116713372Y-139895499D01*
X116827846Y-139880429D01*
X116887550Y-139855698D01*
X116957016Y-139848230D01*
X116982443Y-139855695D01*
X117042154Y-139880429D01*
X117156627Y-139895500D01*
X117963372Y-139895499D01*
X118077846Y-139880429D01*
X118137550Y-139855698D01*
X118207016Y-139848230D01*
X118232443Y-139855695D01*
X118292154Y-139880429D01*
X118406627Y-139895500D01*
X119213372Y-139895499D01*
X119327846Y-139880429D01*
X119470276Y-139821433D01*
X119592583Y-139727583D01*
X119686433Y-139605276D01*
X119745429Y-139462846D01*
X119760500Y-139348373D01*
X119760499Y-138591628D01*
X119745429Y-138477154D01*
X119686433Y-138334724D01*
X119638598Y-138272384D01*
X119633477Y-138259140D01*
X119624181Y-138248411D01*
X119621131Y-138227204D01*
X119613405Y-138207218D01*
X119616257Y-138193308D01*
X119614237Y-138179253D01*
X119623138Y-138159762D01*
X119627443Y-138138773D01*
X119637363Y-138128613D01*
X119643262Y-138115697D01*
X119661288Y-138104112D01*
X119676257Y-138088783D01*
X119691240Y-138084863D01*
X119702040Y-138077923D01*
X119736975Y-138072900D01*
X119898197Y-138072900D01*
X119965236Y-138092585D01*
X119985878Y-138109219D01*
X122303798Y-140427139D01*
X122303801Y-140427141D01*
X122410736Y-140498592D01*
X122529556Y-140547809D01*
X122529560Y-140547809D01*
X122529561Y-140547810D01*
X122655692Y-140572900D01*
X122655695Y-140572900D01*
X126585501Y-140572900D01*
X126652540Y-140592585D01*
X126698295Y-140645389D01*
X126709501Y-140696900D01*
X126709501Y-140967876D01*
X126715908Y-141027483D01*
X126766202Y-141162328D01*
X126766206Y-141162335D01*
X126852452Y-141277544D01*
X126852455Y-141277547D01*
X126967664Y-141363793D01*
X126967671Y-141363797D01*
X127102517Y-141414091D01*
X127102516Y-141414091D01*
X127109444Y-141414835D01*
X127162127Y-141420500D01*
X130057872Y-141420499D01*
X130117483Y-141414091D01*
X130252331Y-141363796D01*
X130367546Y-141277546D01*
X130453796Y-141162331D01*
X130504091Y-141027483D01*
X130510500Y-140967873D01*
X130510499Y-138872128D01*
X130504091Y-138812517D01*
X130499315Y-138799711D01*
X130453797Y-138677670D01*
X130441432Y-138661153D01*
X130428823Y-138644310D01*
X130404406Y-138578849D01*
X130419257Y-138510575D01*
X130428823Y-138495690D01*
X130453796Y-138462331D01*
X130467512Y-138425558D01*
X130477673Y-138398314D01*
X130504091Y-138327483D01*
X130510500Y-138267873D01*
X130510500Y-137833389D01*
X131209500Y-137833389D01*
X131209500Y-138006611D01*
X131213301Y-138030609D01*
X131233756Y-138159762D01*
X131236598Y-138177701D01*
X131290127Y-138342445D01*
X131368768Y-138496788D01*
X131470586Y-138636928D01*
X131593072Y-138759414D01*
X131733212Y-138861232D01*
X131887555Y-138939873D01*
X132052299Y-138993402D01*
X132223389Y-139020500D01*
X132223390Y-139020500D01*
X132396610Y-139020500D01*
X132396611Y-139020500D01*
X132567701Y-138993402D01*
X132732445Y-138939873D01*
X132793457Y-138908785D01*
X132862125Y-138895889D01*
X132926866Y-138922164D01*
X132967123Y-138979270D01*
X132970116Y-139049076D01*
X132964316Y-139066715D01*
X132960265Y-139076495D01*
X132960261Y-139076510D01*
X132929500Y-139231153D01*
X132929500Y-139388846D01*
X132960261Y-139543489D01*
X132960264Y-139543501D01*
X133020602Y-139689172D01*
X133020609Y-139689185D01*
X133108210Y-139820288D01*
X133108213Y-139820292D01*
X133219707Y-139931786D01*
X133219711Y-139931789D01*
X133350814Y-140019390D01*
X133350827Y-140019397D01*
X133496498Y-140079735D01*
X133496503Y-140079737D01*
X133638580Y-140107998D01*
X133651153Y-140110499D01*
X133651156Y-140110500D01*
X133651158Y-140110500D01*
X133808844Y-140110500D01*
X133874753Y-140097389D01*
X133963497Y-140079737D01*
X133963499Y-140079735D01*
X133964178Y-140079601D01*
X134033770Y-140085828D01*
X134088947Y-140128690D01*
X134111659Y-140187963D01*
X134115907Y-140227479D01*
X134166202Y-140362328D01*
X134166206Y-140362335D01*
X134252452Y-140477544D01*
X134252455Y-140477547D01*
X134367664Y-140563793D01*
X134367671Y-140563797D01*
X134502517Y-140614091D01*
X134502516Y-140614091D01*
X134509444Y-140614835D01*
X134562127Y-140620500D01*
X137457872Y-140620499D01*
X137517483Y-140614091D01*
X137652331Y-140563796D01*
X137767546Y-140477546D01*
X137853796Y-140362331D01*
X137904091Y-140227483D01*
X137910500Y-140167873D01*
X137910499Y-137872128D01*
X137904091Y-137812517D01*
X137899167Y-137799316D01*
X137853797Y-137677671D01*
X137853793Y-137677664D01*
X137767547Y-137562455D01*
X137767544Y-137562452D01*
X137652335Y-137476206D01*
X137652328Y-137476202D01*
X137517482Y-137425908D01*
X137517483Y-137425908D01*
X137457883Y-137419501D01*
X137457881Y-137419500D01*
X137457873Y-137419500D01*
X137457864Y-137419500D01*
X134562129Y-137419500D01*
X134562123Y-137419501D01*
X134502516Y-137425908D01*
X134367671Y-137476202D01*
X134367664Y-137476206D01*
X134252455Y-137562452D01*
X134252452Y-137562455D01*
X134166206Y-137677664D01*
X134166202Y-137677671D01*
X134115908Y-137812517D01*
X134112803Y-137841404D01*
X134109501Y-137872123D01*
X134109500Y-137872135D01*
X134109500Y-138243100D01*
X134089815Y-138310139D01*
X134037011Y-138355894D01*
X133985500Y-138367100D01*
X133955693Y-138367100D01*
X133829561Y-138392189D01*
X133829555Y-138392191D01*
X133710737Y-138441407D01*
X133611394Y-138507785D01*
X133608364Y-138509159D01*
X133607152Y-138510496D01*
X133594682Y-138515367D01*
X133574722Y-138524423D01*
X133570724Y-138525498D01*
X133496503Y-138540263D01*
X133460633Y-138555120D01*
X133452838Y-138557218D01*
X133425647Y-138556599D01*
X133398599Y-138559506D01*
X133391227Y-138555815D01*
X133382987Y-138555628D01*
X133360447Y-138540407D01*
X133336121Y-138528229D01*
X133331914Y-138521138D01*
X133325084Y-138516526D01*
X133314349Y-138491532D01*
X133300471Y-138468139D01*
X133300765Y-138459902D01*
X133297512Y-138452327D01*
X133301995Y-138425494D01*
X133302967Y-138398314D01*
X133308910Y-138384110D01*
X133309027Y-138383412D01*
X133309352Y-138383052D01*
X133310136Y-138381181D01*
X133329871Y-138342449D01*
X133329872Y-138342447D01*
X133329873Y-138342445D01*
X133383402Y-138177701D01*
X133410500Y-138006611D01*
X133410500Y-137833389D01*
X133383402Y-137662299D01*
X133329873Y-137497555D01*
X133251232Y-137343212D01*
X133149414Y-137203072D01*
X133026928Y-137080586D01*
X132886788Y-136978768D01*
X132772021Y-136920292D01*
X132732447Y-136900128D01*
X132732446Y-136900127D01*
X132732445Y-136900127D01*
X132567701Y-136846598D01*
X132567699Y-136846597D01*
X132567698Y-136846597D01*
X132436271Y-136825781D01*
X132396611Y-136819500D01*
X132223389Y-136819500D01*
X132183728Y-136825781D01*
X132052302Y-136846597D01*
X132052299Y-136846598D01*
X131944326Y-136881681D01*
X131887552Y-136900128D01*
X131733211Y-136978768D01*
X131660239Y-137031786D01*
X131593072Y-137080586D01*
X131593070Y-137080588D01*
X131593069Y-137080588D01*
X131470588Y-137203069D01*
X131470588Y-137203070D01*
X131470586Y-137203072D01*
X131455978Y-137223178D01*
X131368768Y-137343211D01*
X131290128Y-137497552D01*
X131236597Y-137662302D01*
X131234163Y-137677671D01*
X131209500Y-137833389D01*
X130510500Y-137833389D01*
X130510499Y-137119397D01*
X130510499Y-135972129D01*
X130510498Y-135972123D01*
X130510497Y-135972116D01*
X130504091Y-135912517D01*
X130500092Y-135901796D01*
X130453797Y-135777671D01*
X130453793Y-135777664D01*
X130367547Y-135662455D01*
X130367544Y-135662452D01*
X130252335Y-135576206D01*
X130252328Y-135576202D01*
X130117482Y-135525908D01*
X130117483Y-135525908D01*
X130057883Y-135519501D01*
X130057881Y-135519500D01*
X130057873Y-135519500D01*
X130057865Y-135519500D01*
X129334500Y-135519500D01*
X129267461Y-135499815D01*
X129221706Y-135447011D01*
X129210500Y-135395500D01*
X129210500Y-134007981D01*
X129230185Y-133940942D01*
X129282989Y-133895187D01*
X129287005Y-133893437D01*
X129321225Y-133879264D01*
X129458888Y-133787281D01*
X129575960Y-133670209D01*
X129667943Y-133532546D01*
X129731301Y-133379584D01*
X129733356Y-133369256D01*
X129763600Y-133217203D01*
X129763601Y-133217200D01*
X129763600Y-133134418D01*
X129763600Y-133098443D01*
X129763600Y-132973289D01*
X129763601Y-132931642D01*
X129749117Y-132858824D01*
X129731303Y-132769265D01*
X129731300Y-132769256D01*
X129728292Y-132761995D01*
X129668318Y-132617202D01*
X129667946Y-132616303D01*
X129667945Y-132616302D01*
X129667943Y-132616296D01*
X129651716Y-132592011D01*
X129575963Y-132478637D01*
X129575957Y-132478629D01*
X129458891Y-132361563D01*
X129458883Y-132361557D01*
X129321227Y-132269578D01*
X129321224Y-132269577D01*
X129287045Y-132255419D01*
X129232643Y-132211577D01*
X129210579Y-132145283D01*
X129210500Y-132140859D01*
X129210500Y-131300942D01*
X129210499Y-131300939D01*
X129210136Y-131299581D01*
X129210136Y-131299582D01*
X129202161Y-131269818D01*
X129169577Y-131148215D01*
X129166583Y-131143030D01*
X129152174Y-131118073D01*
X129126287Y-131073235D01*
X129090520Y-131011284D01*
X128978716Y-130899480D01*
X128978715Y-130899479D01*
X128974385Y-130895149D01*
X128974374Y-130895139D01*
X128707590Y-130628355D01*
X128707588Y-130628352D01*
X128588717Y-130509481D01*
X128588709Y-130509475D01*
X128492851Y-130454132D01*
X128492849Y-130454131D01*
X128451790Y-130430425D01*
X128451789Y-130430424D01*
X128432569Y-130425274D01*
X128299057Y-130389499D01*
X128140943Y-130389499D01*
X128133347Y-130389499D01*
X128133331Y-130389500D01*
X126209057Y-130389500D01*
X126050942Y-130389500D01*
X125898215Y-130430423D01*
X125898214Y-130430423D01*
X125898212Y-130430424D01*
X125898209Y-130430425D01*
X125857151Y-130454131D01*
X125857149Y-130454132D01*
X125761290Y-130509475D01*
X125761282Y-130509481D01*
X125395481Y-130875282D01*
X125395479Y-130875285D01*
X125356406Y-130942963D01*
X125351832Y-130950886D01*
X125316423Y-131012215D01*
X125289831Y-131111454D01*
X125287216Y-131118073D01*
X125269934Y-131140252D01*
X125255300Y-131164261D01*
X125247249Y-131169367D01*
X125244273Y-131173188D01*
X125237449Y-131175584D01*
X125219352Y-131187064D01*
X125215726Y-131188566D01*
X125215724Y-131188567D01*
X125093417Y-131282417D01*
X125042189Y-131349179D01*
X124999565Y-131404727D01*
X124940572Y-131547150D01*
X124940571Y-131547154D01*
X124925500Y-131661619D01*
X124925500Y-132418372D01*
X124939448Y-132524315D01*
X124928682Y-132593351D01*
X124882302Y-132645606D01*
X124816509Y-132664500D01*
X124405491Y-132664500D01*
X124338452Y-132644815D01*
X124292697Y-132592011D01*
X124282552Y-132524314D01*
X124296499Y-132418380D01*
X124296500Y-132418373D01*
X124296499Y-131661628D01*
X124281429Y-131547154D01*
X124222433Y-131404724D01*
X124128583Y-131282417D01*
X124006276Y-131188567D01*
X124006272Y-131188565D01*
X123863849Y-131129572D01*
X123863847Y-131129571D01*
X123863846Y-131129571D01*
X123850527Y-131127817D01*
X123749373Y-131114499D01*
X123747089Y-131114350D01*
X123746446Y-131114114D01*
X123745348Y-131113970D01*
X123745380Y-131113724D01*
X123721947Y-131105139D01*
X123695786Y-131099448D01*
X123685600Y-131091823D01*
X123681484Y-131090315D01*
X123667532Y-131078297D01*
X123567590Y-130978355D01*
X123567588Y-130978352D01*
X123448717Y-130859481D01*
X123448716Y-130859480D01*
X123361904Y-130809360D01*
X123361904Y-130809359D01*
X123361900Y-130809358D01*
X123311785Y-130780423D01*
X123159057Y-130739499D01*
X123000943Y-130739499D01*
X122993339Y-130739499D01*
X122993339Y-130739498D01*
X122993331Y-130739500D01*
X122840267Y-130739500D01*
X122773228Y-130719815D01*
X122741891Y-130690986D01*
X122722089Y-130665180D01*
X122703140Y-130640485D01*
X122677947Y-130575317D01*
X122691985Y-130506872D01*
X122703141Y-130489514D01*
X122730291Y-130454132D01*
X122741891Y-130439013D01*
X122798319Y-130397811D01*
X122840267Y-130390500D01*
X122993331Y-130390500D01*
X122993347Y-130390501D01*
X123000943Y-130390501D01*
X123159054Y-130390501D01*
X123159057Y-130390501D01*
X123311785Y-130349577D01*
X123363879Y-130319500D01*
X123448716Y-130270520D01*
X123560520Y-130158716D01*
X123560520Y-130158714D01*
X123570723Y-130148512D01*
X123570727Y-130148506D01*
X123667534Y-130051699D01*
X123728855Y-130018216D01*
X123747106Y-130015647D01*
X123749350Y-130015499D01*
X123749372Y-130015499D01*
X123863846Y-130000429D01*
X124006276Y-129941433D01*
X124128583Y-129847583D01*
X124222433Y-129725276D01*
X124281429Y-129582846D01*
X124296500Y-129468373D01*
X124296499Y-128711628D01*
X124296177Y-128709185D01*
X124282552Y-128605683D01*
X124293318Y-128536648D01*
X124339698Y-128484393D01*
X124405491Y-128465499D01*
X124816509Y-128465499D01*
X124883548Y-128485184D01*
X124929303Y-128537988D01*
X124939448Y-128605685D01*
X124925500Y-128711619D01*
X124925500Y-129468372D01*
X124940571Y-129582847D01*
X124999565Y-129725272D01*
X124999567Y-129725276D01*
X125093417Y-129847583D01*
X125215724Y-129941433D01*
X125358154Y-130000429D01*
X125472627Y-130015500D01*
X126279372Y-130015499D01*
X126393846Y-130000429D01*
X126536276Y-129941433D01*
X126658583Y-129847583D01*
X126741893Y-129739011D01*
X126798319Y-129697811D01*
X126840267Y-129690500D01*
X131782473Y-129690500D01*
X131849512Y-129710185D01*
X131895267Y-129762989D01*
X131905211Y-129832147D01*
X131876186Y-129895703D01*
X131838768Y-129924985D01*
X131733211Y-129978768D01*
X131653256Y-130036859D01*
X131593072Y-130080586D01*
X131593070Y-130080588D01*
X131593069Y-130080588D01*
X131470588Y-130203069D01*
X131470588Y-130203070D01*
X131470586Y-130203072D01*
X131426859Y-130263256D01*
X131368768Y-130343211D01*
X131290128Y-130497552D01*
X131290127Y-130497554D01*
X131290127Y-130497555D01*
X131278232Y-130534165D01*
X131236597Y-130662302D01*
X131209995Y-130830261D01*
X131209500Y-130833389D01*
X131209500Y-131006611D01*
X131210241Y-131011287D01*
X131236262Y-131175584D01*
X131236598Y-131177701D01*
X131276191Y-131299556D01*
X131290128Y-131342447D01*
X131302385Y-131366503D01*
X131368768Y-131496788D01*
X131470586Y-131636928D01*
X131593072Y-131759414D01*
X131733212Y-131861232D01*
X131887555Y-131939873D01*
X132052299Y-131993402D01*
X132223389Y-132020500D01*
X132223390Y-132020500D01*
X132396610Y-132020500D01*
X132396611Y-132020500D01*
X132567701Y-131993402D01*
X132732445Y-131939873D01*
X132886788Y-131861232D01*
X133026928Y-131759414D01*
X133149414Y-131636928D01*
X133251232Y-131496788D01*
X133329873Y-131342445D01*
X133383402Y-131177701D01*
X133410500Y-131006611D01*
X133410500Y-130833389D01*
X133383402Y-130662299D01*
X133329873Y-130497555D01*
X133251232Y-130343212D01*
X133149414Y-130203072D01*
X133026928Y-130080586D01*
X132886788Y-129978768D01*
X132781232Y-129924985D01*
X132730436Y-129877011D01*
X132713641Y-129809190D01*
X132736178Y-129743055D01*
X132790893Y-129699603D01*
X132837527Y-129690500D01*
X133985501Y-129690500D01*
X134052540Y-129710185D01*
X134098295Y-129762989D01*
X134109501Y-129814500D01*
X134109501Y-131067876D01*
X134115908Y-131127483D01*
X134166202Y-131262328D01*
X134166206Y-131262335D01*
X134252452Y-131377544D01*
X134252455Y-131377547D01*
X134367664Y-131463793D01*
X134367671Y-131463797D01*
X134502517Y-131514091D01*
X134502516Y-131514091D01*
X134509444Y-131514835D01*
X134562127Y-131520500D01*
X137457872Y-131520499D01*
X137517483Y-131514091D01*
X137652331Y-131463796D01*
X137767546Y-131377546D01*
X137853796Y-131262331D01*
X137904091Y-131127483D01*
X137910500Y-131067873D01*
X137910499Y-128172128D01*
X137904091Y-128112517D01*
X137900883Y-128103917D01*
X137853797Y-127977671D01*
X137853793Y-127977664D01*
X137767547Y-127862455D01*
X137767544Y-127862452D01*
X137652335Y-127776206D01*
X137652328Y-127776202D01*
X137517482Y-127725908D01*
X137517483Y-127725908D01*
X137457883Y-127719501D01*
X137457881Y-127719500D01*
X137457873Y-127719500D01*
X137457864Y-127719500D01*
X134562129Y-127719500D01*
X134562123Y-127719501D01*
X134502516Y-127725908D01*
X134367671Y-127776202D01*
X134367664Y-127776206D01*
X134252455Y-127862452D01*
X134252452Y-127862455D01*
X134166206Y-127977664D01*
X134166202Y-127977671D01*
X134115908Y-128112517D01*
X134110708Y-128160887D01*
X134109501Y-128172123D01*
X134109500Y-128172135D01*
X134109500Y-128365500D01*
X134089815Y-128432539D01*
X134037011Y-128478294D01*
X133985500Y-128489500D01*
X126840267Y-128489500D01*
X126836609Y-128488426D01*
X126832893Y-128489281D01*
X126803342Y-128478657D01*
X126773228Y-128469815D01*
X126769689Y-128466559D01*
X126767143Y-128465644D01*
X126741891Y-128440986D01*
X126735409Y-128432539D01*
X126703140Y-128390485D01*
X126677947Y-128325317D01*
X126691985Y-128256872D01*
X126703142Y-128239513D01*
X126744588Y-128185500D01*
X126752433Y-128175276D01*
X126757600Y-128162803D01*
X126766717Y-128140790D01*
X126811429Y-128032846D01*
X126826500Y-127918373D01*
X126826499Y-127161628D01*
X126811429Y-127047154D01*
X126752433Y-126904724D01*
X126658583Y-126782417D01*
X126536276Y-126688567D01*
X126536272Y-126688565D01*
X126393849Y-126629572D01*
X126393847Y-126629571D01*
X126393846Y-126629571D01*
X126279373Y-126614500D01*
X125472627Y-126614500D01*
X125358153Y-126629571D01*
X125358150Y-126629572D01*
X125293450Y-126656371D01*
X125223981Y-126663838D01*
X125198548Y-126656371D01*
X125193171Y-126654144D01*
X125133846Y-126629571D01*
X125019373Y-126614500D01*
X124212627Y-126614500D01*
X124098153Y-126629571D01*
X124098150Y-126629572D01*
X124028450Y-126658442D01*
X123958981Y-126665909D01*
X123933548Y-126658442D01*
X123925023Y-126654911D01*
X123863846Y-126629571D01*
X123849536Y-126627687D01*
X123749380Y-126614500D01*
X122968541Y-126614500D01*
X122901502Y-126594815D01*
X122855747Y-126542011D01*
X122845183Y-126477896D01*
X122846500Y-126465009D01*
X122846499Y-125839992D01*
X122845520Y-125830413D01*
X122844219Y-125817666D01*
X122843554Y-125811153D01*
X128229500Y-125811153D01*
X128229500Y-125968846D01*
X128260261Y-126123489D01*
X128260264Y-126123501D01*
X128320602Y-126269172D01*
X128320609Y-126269185D01*
X128408210Y-126400288D01*
X128408213Y-126400292D01*
X128519707Y-126511786D01*
X128519711Y-126511789D01*
X128650814Y-126599390D01*
X128650827Y-126599397D01*
X128796498Y-126659735D01*
X128796503Y-126659737D01*
X128941430Y-126688565D01*
X128951153Y-126690499D01*
X128951156Y-126690500D01*
X128951158Y-126690500D01*
X129108844Y-126690500D01*
X129108845Y-126690499D01*
X129263497Y-126659737D01*
X129376166Y-126613067D01*
X129409172Y-126599397D01*
X129409172Y-126599396D01*
X129409179Y-126599394D01*
X129409184Y-126599390D01*
X129409187Y-126599389D01*
X129466608Y-126561021D01*
X129533285Y-126540142D01*
X129600665Y-126558626D01*
X129647356Y-126610604D01*
X129659500Y-126664122D01*
X129659500Y-126967869D01*
X129659501Y-126967876D01*
X129665908Y-127027483D01*
X129716202Y-127162328D01*
X129716206Y-127162335D01*
X129802452Y-127277544D01*
X129802455Y-127277547D01*
X129917664Y-127363793D01*
X129917671Y-127363797D01*
X130052517Y-127414091D01*
X130052516Y-127414091D01*
X130059444Y-127414835D01*
X130112127Y-127420500D01*
X133007872Y-127420499D01*
X133067483Y-127414091D01*
X133202331Y-127363796D01*
X133317546Y-127277546D01*
X133403796Y-127162331D01*
X133454091Y-127027483D01*
X133460500Y-126967873D01*
X133460499Y-124272128D01*
X133454091Y-124212517D01*
X133444060Y-124185623D01*
X133403797Y-124077671D01*
X133403793Y-124077664D01*
X133317547Y-123962455D01*
X133317544Y-123962452D01*
X133202335Y-123876206D01*
X133202328Y-123876202D01*
X133067482Y-123825908D01*
X133067483Y-123825908D01*
X133007883Y-123819501D01*
X133007881Y-123819500D01*
X133007873Y-123819500D01*
X133007864Y-123819500D01*
X130112129Y-123819500D01*
X130112123Y-123819501D01*
X130052516Y-123825908D01*
X129917671Y-123876202D01*
X129917664Y-123876206D01*
X129802455Y-123962452D01*
X129802452Y-123962455D01*
X129716206Y-124077664D01*
X129716202Y-124077671D01*
X129665908Y-124212517D01*
X129662954Y-124240000D01*
X129659501Y-124272123D01*
X129659500Y-124272135D01*
X129659500Y-124843100D01*
X129639815Y-124910139D01*
X129587011Y-124955894D01*
X129535500Y-124967100D01*
X129235693Y-124967100D01*
X129109561Y-124992189D01*
X129109555Y-124992191D01*
X129014878Y-125031407D01*
X129014878Y-125031408D01*
X129002807Y-125036408D01*
X128990735Y-125041408D01*
X128925534Y-125084973D01*
X128880839Y-125103486D01*
X128796506Y-125120261D01*
X128796500Y-125120263D01*
X128650827Y-125180602D01*
X128650814Y-125180609D01*
X128519711Y-125268210D01*
X128519707Y-125268213D01*
X128408213Y-125379707D01*
X128408210Y-125379711D01*
X128320609Y-125510814D01*
X128320602Y-125510827D01*
X128260264Y-125656498D01*
X128260261Y-125656510D01*
X128229500Y-125811153D01*
X122843554Y-125811153D01*
X122840749Y-125783706D01*
X122835999Y-125737203D01*
X122780814Y-125570666D01*
X122688712Y-125421344D01*
X122564656Y-125297288D01*
X122461072Y-125233397D01*
X122415336Y-125205187D01*
X122415331Y-125205185D01*
X122412483Y-125204241D01*
X122278107Y-125159713D01*
X122220663Y-125119941D01*
X122214017Y-125110909D01*
X122153141Y-125019801D01*
X122153139Y-125019798D01*
X122153138Y-125019797D01*
X121626172Y-124492832D01*
X121592687Y-124431509D01*
X121592252Y-124429424D01*
X121579737Y-124366503D01*
X121540649Y-124272135D01*
X121519397Y-124220827D01*
X121519390Y-124220814D01*
X121431789Y-124089711D01*
X121431786Y-124089707D01*
X121320292Y-123978213D01*
X121320288Y-123978210D01*
X121189185Y-123890609D01*
X121189172Y-123890602D01*
X121043501Y-123830264D01*
X121043489Y-123830261D01*
X120888845Y-123799500D01*
X120888842Y-123799500D01*
X120731158Y-123799500D01*
X120731155Y-123799500D01*
X120576510Y-123830261D01*
X120576498Y-123830264D01*
X120430827Y-123890602D01*
X120430814Y-123890609D01*
X120299711Y-123978210D01*
X120299707Y-123978213D01*
X120188213Y-124089707D01*
X120188210Y-124089711D01*
X120100609Y-124220814D01*
X120100602Y-124220827D01*
X120040264Y-124366498D01*
X120040261Y-124366510D01*
X120009500Y-124521153D01*
X120009500Y-124678846D01*
X120040261Y-124833489D01*
X120040264Y-124833501D01*
X120097940Y-124972744D01*
X120105409Y-125042213D01*
X120074134Y-125104692D01*
X120014044Y-125140344D01*
X119970779Y-125143554D01*
X119935993Y-125140001D01*
X119935974Y-125140000D01*
X119686000Y-125140000D01*
X119686000Y-126028500D01*
X119666315Y-126095539D01*
X119613511Y-126141294D01*
X119562000Y-126152500D01*
X119436000Y-126152500D01*
X119436000Y-126278500D01*
X119416315Y-126345539D01*
X119363511Y-126391294D01*
X119312000Y-126402500D01*
X118352040Y-126402500D01*
X118285001Y-126382815D01*
X118253664Y-126353987D01*
X118202584Y-126287418D01*
X118190962Y-126278500D01*
X118080276Y-126193567D01*
X118080272Y-126193565D01*
X117937849Y-126134572D01*
X117937847Y-126134571D01*
X117937846Y-126134571D01*
X117823373Y-126119500D01*
X117066627Y-126119500D01*
X116952152Y-126134571D01*
X116809725Y-126193565D01*
X116809723Y-126193567D01*
X116745486Y-126242858D01*
X116727071Y-126249976D01*
X116711036Y-126261495D01*
X116695152Y-126262316D01*
X116680317Y-126268052D01*
X116660976Y-126264084D01*
X116641260Y-126265105D01*
X116622559Y-126256205D01*
X116611872Y-126254013D01*
X116608440Y-126252122D01*
X116601160Y-126247958D01*
X116530276Y-126193567D01*
X116442426Y-126157178D01*
X116435590Y-126153269D01*
X116416613Y-126133529D01*
X116395294Y-126116349D01*
X116392750Y-126108706D01*
X116387168Y-126102900D01*
X116381875Y-126076033D01*
X116373229Y-126050055D01*
X116375220Y-126042251D01*
X116373664Y-126034348D01*
X116383736Y-126008886D01*
X116390508Y-125982355D01*
X116398095Y-125972587D01*
X116399366Y-125969377D01*
X116402136Y-125967387D01*
X116409464Y-125957954D01*
X116477411Y-125890008D01*
X116485100Y-125878500D01*
X116510816Y-125840013D01*
X118236000Y-125840013D01*
X118236000Y-125902500D01*
X119186000Y-125902500D01*
X119186000Y-125140000D01*
X118936029Y-125140000D01*
X118936012Y-125140001D01*
X118833302Y-125150494D01*
X118666880Y-125205641D01*
X118666875Y-125205643D01*
X118517654Y-125297684D01*
X118393684Y-125421654D01*
X118301643Y-125570875D01*
X118301641Y-125570880D01*
X118246494Y-125737302D01*
X118246493Y-125737309D01*
X118236000Y-125840013D01*
X116510816Y-125840013D01*
X116546083Y-125787233D01*
X116593385Y-125673035D01*
X116609309Y-125592981D01*
X116617500Y-125551805D01*
X116617500Y-125183549D01*
X116637185Y-125116510D01*
X116666009Y-125085177D01*
X116747583Y-125022583D01*
X116841433Y-124900276D01*
X116900429Y-124757846D01*
X116915500Y-124643373D01*
X116915499Y-123842626D01*
X116935183Y-123775588D01*
X116976376Y-123735895D01*
X117031865Y-123703081D01*
X117148081Y-123586865D01*
X117231744Y-123445398D01*
X117277598Y-123287569D01*
X117280500Y-123250694D01*
X117280500Y-122069306D01*
X117277598Y-122032431D01*
X117274703Y-122022468D01*
X117231745Y-121874606D01*
X117231744Y-121874603D01*
X117231744Y-121874602D01*
X117148081Y-121733135D01*
X117148079Y-121733133D01*
X117148076Y-121733129D01*
X117031870Y-121616923D01*
X117031862Y-121616917D01*
X116951949Y-121569657D01*
X116890398Y-121533256D01*
X116890397Y-121533255D01*
X116890396Y-121533255D01*
X116890393Y-121533254D01*
X116732573Y-121487402D01*
X116732567Y-121487401D01*
X116695701Y-121484500D01*
X116695694Y-121484500D01*
X115864306Y-121484500D01*
X115864298Y-121484500D01*
X115827432Y-121487401D01*
X115827426Y-121487402D01*
X115669606Y-121533254D01*
X115669603Y-121533255D01*
X115528137Y-121616917D01*
X115528133Y-121616920D01*
X115417327Y-121727726D01*
X115356004Y-121761210D01*
X115286312Y-121756226D01*
X115241965Y-121727725D01*
X115131561Y-121617321D01*
X115131552Y-121617314D01*
X114990196Y-121533717D01*
X114990193Y-121533716D01*
X114832495Y-121487900D01*
X114832489Y-121487899D01*
X114795649Y-121485000D01*
X114630000Y-121485000D01*
X114630000Y-123160000D01*
X114653681Y-123183681D01*
X114687166Y-123245004D01*
X114690000Y-123271362D01*
X114690000Y-125190000D01*
X114818345Y-125190000D01*
X114932714Y-125174943D01*
X114932719Y-125174941D01*
X115075019Y-125115999D01*
X115075025Y-125115996D01*
X115139103Y-125066827D01*
X115165079Y-125056784D01*
X115189680Y-125043730D01*
X115197216Y-125044359D01*
X115204272Y-125041632D01*
X115231556Y-125047227D01*
X115259307Y-125049546D01*
X115268769Y-125054860D01*
X115272717Y-125055670D01*
X115290074Y-125066825D01*
X115303543Y-125077160D01*
X115311256Y-125083079D01*
X115352457Y-125139508D01*
X115356609Y-125209254D01*
X115323447Y-125269133D01*
X114808873Y-125783706D01*
X114747550Y-125817191D01*
X114677858Y-125812207D01*
X114633511Y-125783706D01*
X114607298Y-125757493D01*
X114607290Y-125757487D01*
X114502392Y-125687396D01*
X114502388Y-125687394D01*
X114385831Y-125639115D01*
X114385819Y-125639112D01*
X114262087Y-125614500D01*
X114262084Y-125614500D01*
X114135916Y-125614500D01*
X114135914Y-125614500D01*
X114012177Y-125639113D01*
X114012167Y-125639115D01*
X113997949Y-125645005D01*
X113965318Y-125648511D01*
X113932853Y-125653180D01*
X113930763Y-125652225D01*
X113928480Y-125652471D01*
X113899149Y-125637788D01*
X113869297Y-125624155D01*
X113868054Y-125622222D01*
X113866001Y-125621194D01*
X113849263Y-125592981D01*
X113831523Y-125565377D01*
X113831086Y-125562344D01*
X113830351Y-125561104D01*
X113826500Y-125530442D01*
X113826500Y-125300436D01*
X113846185Y-125233397D01*
X113898989Y-125187642D01*
X113966685Y-125177497D01*
X114061655Y-125190000D01*
X114190000Y-125190000D01*
X114190000Y-123965000D01*
X114166319Y-123941319D01*
X114132834Y-123879996D01*
X114130000Y-123853638D01*
X114130000Y-122910000D01*
X113654258Y-122910000D01*
X113606806Y-122900561D01*
X113507849Y-122859572D01*
X113507847Y-122859571D01*
X113507846Y-122859571D01*
X113493536Y-122857687D01*
X113393380Y-122844500D01*
X113393373Y-122844500D01*
X112719500Y-122844500D01*
X112652461Y-122824815D01*
X112606706Y-122772011D01*
X112595500Y-122720500D01*
X112595500Y-122069350D01*
X113380000Y-122069350D01*
X113380000Y-122410000D01*
X114130000Y-122410000D01*
X114130000Y-121485000D01*
X113964350Y-121485000D01*
X113927510Y-121487899D01*
X113927504Y-121487900D01*
X113769806Y-121533716D01*
X113769803Y-121533717D01*
X113628447Y-121617314D01*
X113628438Y-121617321D01*
X113512321Y-121733438D01*
X113512314Y-121733447D01*
X113428717Y-121874803D01*
X113428716Y-121874806D01*
X113382900Y-122032504D01*
X113382899Y-122032510D01*
X113380000Y-122069350D01*
X112595500Y-122069350D01*
X112595500Y-122069313D01*
X112595499Y-122069298D01*
X112592598Y-122032432D01*
X112592597Y-122032426D01*
X112546745Y-121874606D01*
X112546744Y-121874603D01*
X112546744Y-121874602D01*
X112532490Y-121850499D01*
X112481244Y-121763845D01*
X112464061Y-121696121D01*
X112486221Y-121629859D01*
X112500289Y-121613050D01*
X115557141Y-118556199D01*
X115628592Y-118449264D01*
X115677809Y-118330444D01*
X115686710Y-118285695D01*
X115694066Y-118248710D01*
X115726449Y-118186802D01*
X115787165Y-118152227D01*
X115856934Y-118155966D01*
X115863137Y-118158343D01*
X115866497Y-118159735D01*
X115866499Y-118159735D01*
X115866503Y-118159737D01*
X116021153Y-118190499D01*
X116021156Y-118190500D01*
X116021158Y-118190500D01*
X116178844Y-118190500D01*
X116178845Y-118190499D01*
X116333497Y-118159737D01*
X116479179Y-118099394D01*
X116610289Y-118011789D01*
X116721789Y-117900289D01*
X116809394Y-117769179D01*
X116869737Y-117623497D01*
X116900500Y-117468842D01*
X116900500Y-117373202D01*
X116920185Y-117306163D01*
X116972989Y-117260408D01*
X117042147Y-117250464D01*
X117105703Y-117279489D01*
X117112169Y-117285510D01*
X117625113Y-117798453D01*
X118264479Y-118437819D01*
X118297964Y-118499142D01*
X118292980Y-118568834D01*
X118251108Y-118624767D01*
X118185644Y-118649184D01*
X118176798Y-118649500D01*
X117852130Y-118649500D01*
X117852123Y-118649501D01*
X117792518Y-118655908D01*
X117791015Y-118656264D01*
X117789213Y-118656264D01*
X117784804Y-118656738D01*
X117784753Y-118656264D01*
X117740246Y-118656264D01*
X117740195Y-118656738D01*
X117735786Y-118656264D01*
X117733987Y-118656264D01*
X117732484Y-118655909D01*
X117672883Y-118649501D01*
X117672881Y-118649500D01*
X117672873Y-118649500D01*
X117672864Y-118649500D01*
X116727129Y-118649500D01*
X116727123Y-118649501D01*
X116667516Y-118655908D01*
X116532671Y-118706202D01*
X116532664Y-118706206D01*
X116417455Y-118792452D01*
X116338882Y-118897412D01*
X116282948Y-118939282D01*
X116239616Y-118947100D01*
X116015693Y-118947100D01*
X115895365Y-118971035D01*
X115895357Y-118971037D01*
X115891577Y-118971789D01*
X115889556Y-118972191D01*
X115887010Y-118973245D01*
X115878958Y-118975376D01*
X115869279Y-118975114D01*
X115847245Y-118979500D01*
X115821155Y-118979500D01*
X115666510Y-119010261D01*
X115666498Y-119010264D01*
X115520827Y-119070602D01*
X115520814Y-119070609D01*
X115389711Y-119158210D01*
X115389707Y-119158213D01*
X115278213Y-119269707D01*
X115278210Y-119269711D01*
X115190609Y-119400814D01*
X115190602Y-119400827D01*
X115130264Y-119546498D01*
X115130261Y-119546510D01*
X115099500Y-119701153D01*
X115099500Y-119858846D01*
X115130261Y-120013489D01*
X115130264Y-120013501D01*
X115190602Y-120159172D01*
X115190609Y-120159185D01*
X115278210Y-120290288D01*
X115278213Y-120290292D01*
X115389707Y-120401786D01*
X115389711Y-120401789D01*
X115520814Y-120489390D01*
X115520827Y-120489397D01*
X115652872Y-120544091D01*
X115666503Y-120549737D01*
X115821153Y-120580499D01*
X115821156Y-120580500D01*
X115821158Y-120580500D01*
X115978844Y-120580500D01*
X115978845Y-120580499D01*
X116133497Y-120549737D01*
X116261649Y-120496655D01*
X116279172Y-120489397D01*
X116279172Y-120489396D01*
X116279179Y-120489394D01*
X116337053Y-120450724D01*
X116403730Y-120429846D01*
X116471110Y-120448330D01*
X116480255Y-120454559D01*
X116526783Y-120489390D01*
X116532668Y-120493795D01*
X116532671Y-120493797D01*
X116667517Y-120544091D01*
X116667516Y-120544091D01*
X116674444Y-120544835D01*
X116727127Y-120550500D01*
X117400253Y-120550499D01*
X117467292Y-120570183D01*
X117513047Y-120622987D01*
X117522991Y-120692146D01*
X117521870Y-120698690D01*
X117499500Y-120811153D01*
X117499500Y-120968846D01*
X117530261Y-121123489D01*
X117530264Y-121123501D01*
X117590602Y-121269172D01*
X117590607Y-121269181D01*
X117678210Y-121400288D01*
X117678213Y-121400292D01*
X117789707Y-121511786D01*
X117789711Y-121511789D01*
X117920814Y-121599390D01*
X117920827Y-121599397D01*
X118066498Y-121659735D01*
X118066503Y-121659737D01*
X118221153Y-121690499D01*
X118221156Y-121690500D01*
X118221158Y-121690500D01*
X118378844Y-121690500D01*
X118378845Y-121690499D01*
X118533497Y-121659737D01*
X118679179Y-121599394D01*
X118810289Y-121511789D01*
X118921789Y-121400289D01*
X119009394Y-121269179D01*
X119069737Y-121123497D01*
X119100500Y-120968842D01*
X119100500Y-120811158D01*
X119100500Y-120811155D01*
X119078129Y-120698691D01*
X119084356Y-120629099D01*
X119127219Y-120573922D01*
X119193109Y-120550677D01*
X119199746Y-120550499D01*
X119847871Y-120550499D01*
X119847872Y-120550499D01*
X119907483Y-120544091D01*
X120042331Y-120493796D01*
X120157546Y-120407546D01*
X120243796Y-120292331D01*
X120294091Y-120157483D01*
X120300500Y-120097873D01*
X120300499Y-119102128D01*
X120294091Y-119042517D01*
X120282061Y-119010264D01*
X120243797Y-118907671D01*
X120243793Y-118907664D01*
X120157548Y-118792457D01*
X120157546Y-118792454D01*
X120157544Y-118792452D01*
X120157542Y-118792450D01*
X120102588Y-118751311D01*
X120060717Y-118695377D01*
X120052900Y-118652045D01*
X120052900Y-118585692D01*
X120027810Y-118459561D01*
X120027809Y-118459560D01*
X120027809Y-118459556D01*
X120008129Y-118412043D01*
X119986092Y-118358841D01*
X119986091Y-118358839D01*
X119978595Y-118340741D01*
X119978593Y-118340738D01*
X119978593Y-118340737D01*
X119907141Y-118233801D01*
X119907139Y-118233798D01*
X119907138Y-118233797D01*
X117046205Y-115372863D01*
X117046204Y-115372862D01*
X117046200Y-115372859D01*
X116939264Y-115301408D01*
X116820444Y-115252191D01*
X116820443Y-115252190D01*
X116820441Y-115252190D01*
X116816643Y-115251435D01*
X116813129Y-115250736D01*
X116694305Y-115227100D01*
X116661682Y-115227100D01*
X116652139Y-115225604D01*
X116628926Y-115214644D01*
X116604304Y-115207415D01*
X116602501Y-115206235D01*
X116549179Y-115170606D01*
X116549172Y-115170602D01*
X116403501Y-115110264D01*
X116403489Y-115110261D01*
X116340658Y-115097763D01*
X116278747Y-115065378D01*
X116277165Y-115063824D01*
X116266203Y-115052862D01*
X116266204Y-115052862D01*
X116213334Y-115017536D01*
X116159264Y-114981408D01*
X116040444Y-114932191D01*
X116040439Y-114932189D01*
X115958429Y-114915876D01*
X115896519Y-114883490D01*
X115884246Y-114869745D01*
X115832586Y-114802420D01*
X115832584Y-114802418D01*
X115832583Y-114802417D01*
X115710276Y-114708567D01*
X115710272Y-114708565D01*
X115567849Y-114649572D01*
X115567847Y-114649571D01*
X115567846Y-114649571D01*
X115453373Y-114634500D01*
X114646625Y-114634500D01*
X114533084Y-114649448D01*
X114464049Y-114638682D01*
X114411794Y-114592301D01*
X114392900Y-114526509D01*
X114392900Y-114168712D01*
X114412585Y-114101673D01*
X114441414Y-114070336D01*
X114477583Y-114042583D01*
X114571433Y-113920276D01*
X114630429Y-113777846D01*
X114645500Y-113663373D01*
X114645499Y-112856628D01*
X114630429Y-112742154D01*
X114571433Y-112599724D01*
X114477583Y-112477417D01*
X114355276Y-112383567D01*
X114355272Y-112383565D01*
X114212849Y-112324572D01*
X114212847Y-112324571D01*
X114212846Y-112324571D01*
X114098373Y-112309500D01*
X113341627Y-112309500D01*
X113227152Y-112324571D01*
X113084725Y-112383565D01*
X113084723Y-112383567D01*
X113020486Y-112432858D01*
X112955317Y-112458052D01*
X112886872Y-112444013D01*
X112869514Y-112432858D01*
X112805276Y-112383567D01*
X112805274Y-112383565D01*
X112662849Y-112324572D01*
X112662847Y-112324571D01*
X112662846Y-112324571D01*
X112548373Y-112309500D01*
X111791627Y-112309500D01*
X111677153Y-112324571D01*
X111677147Y-112324573D01*
X111659714Y-112331794D01*
X111590245Y-112339263D01*
X111537951Y-112316500D01*
X111514008Y-112298576D01*
X111417331Y-112226204D01*
X111417329Y-112226203D01*
X111417328Y-112226202D01*
X111282482Y-112175908D01*
X111282483Y-112175908D01*
X111222883Y-112169501D01*
X111222881Y-112169500D01*
X111222873Y-112169500D01*
X111222864Y-112169500D01*
X109877129Y-112169500D01*
X109877123Y-112169501D01*
X109817516Y-112175908D01*
X109682671Y-112226202D01*
X109682664Y-112226206D01*
X109567455Y-112312452D01*
X109567452Y-112312455D01*
X109475888Y-112434769D01*
X109473618Y-112433070D01*
X109434420Y-112472264D01*
X109366146Y-112487111D01*
X109300683Y-112462690D01*
X109275554Y-112433689D01*
X109274112Y-112434769D01*
X109182547Y-112312455D01*
X109182544Y-112312452D01*
X109067335Y-112226206D01*
X109067328Y-112226202D01*
X108932482Y-112175908D01*
X108932483Y-112175908D01*
X108872883Y-112169501D01*
X108872881Y-112169500D01*
X108872873Y-112169500D01*
X108872864Y-112169500D01*
X107527129Y-112169500D01*
X107527123Y-112169501D01*
X107467516Y-112175908D01*
X107332671Y-112226202D01*
X107332664Y-112226206D01*
X107217455Y-112312452D01*
X107217452Y-112312455D01*
X107131206Y-112427664D01*
X107131203Y-112427669D01*
X107103646Y-112501554D01*
X107061774Y-112557487D01*
X107011657Y-112579837D01*
X106949560Y-112592189D01*
X106949555Y-112592191D01*
X106830737Y-112641407D01*
X106723802Y-112712858D01*
X106723800Y-112712860D01*
X106572830Y-112863829D01*
X106511509Y-112897312D01*
X106509342Y-112897763D01*
X106446510Y-112910261D01*
X106446498Y-112910264D01*
X106300827Y-112970602D01*
X106300814Y-112970609D01*
X106169711Y-113058210D01*
X106169707Y-113058213D01*
X106058213Y-113169707D01*
X106058210Y-113169711D01*
X105970609Y-113300814D01*
X105970602Y-113300827D01*
X105910264Y-113446498D01*
X105910261Y-113446510D01*
X105879500Y-113601153D01*
X105879500Y-113758846D01*
X105910261Y-113913489D01*
X105910264Y-113913501D01*
X105970602Y-114059172D01*
X105970609Y-114059185D01*
X106058210Y-114190288D01*
X106058213Y-114190292D01*
X106169707Y-114301786D01*
X106169711Y-114301789D01*
X106240585Y-114349146D01*
X106285390Y-114402758D01*
X106294097Y-114472083D01*
X106263942Y-114535111D01*
X106204499Y-114571830D01*
X106171694Y-114576248D01*
X106092531Y-114576248D01*
X106025492Y-114556563D01*
X106004850Y-114539929D01*
X105544209Y-114079289D01*
X105544206Y-114079285D01*
X105544206Y-114079286D01*
X105537139Y-114072219D01*
X105537139Y-114072218D01*
X105397782Y-113932861D01*
X105397781Y-113932860D01*
X105397780Y-113932859D01*
X105233920Y-113823371D01*
X105233907Y-113823364D01*
X105105563Y-113770203D01*
X105105559Y-113770202D01*
X105098167Y-113767140D01*
X105051836Y-113747949D01*
X104947222Y-113727140D01*
X104943121Y-113726324D01*
X104943109Y-113726321D01*
X104858543Y-113709500D01*
X104858541Y-113709500D01*
X103540339Y-113709500D01*
X103473300Y-113689815D01*
X103467470Y-113685829D01*
X103331119Y-113586765D01*
X103146929Y-113492915D01*
X102950335Y-113429038D01*
X102797202Y-113404784D01*
X102746159Y-113396700D01*
X100913841Y-113396700D01*
X100845783Y-113407479D01*
X100709666Y-113429038D01*
X100709663Y-113429038D01*
X100513070Y-113492915D01*
X100328880Y-113586765D01*
X100161639Y-113708273D01*
X100015473Y-113854439D01*
X99893965Y-114021680D01*
X99800115Y-114205870D01*
X99736238Y-114402463D01*
X99736238Y-114402466D01*
X99703900Y-114606641D01*
X99703900Y-114813358D01*
X99736238Y-115017533D01*
X99736238Y-115017536D01*
X99800115Y-115214129D01*
X99893965Y-115398319D01*
X100015471Y-115565558D01*
X100161642Y-115711729D01*
X100328881Y-115833235D01*
X100376333Y-115857413D01*
X100400084Y-115869515D01*
X100450880Y-115917490D01*
X100467675Y-115985311D01*
X100445137Y-116051446D01*
X100400084Y-116090485D01*
X100328880Y-116126765D01*
X100161639Y-116248273D01*
X100015473Y-116394439D01*
X99893965Y-116561680D01*
X99800115Y-116745870D01*
X99736238Y-116942463D01*
X99736238Y-116942466D01*
X99703900Y-117146641D01*
X99703900Y-117353358D01*
X99736238Y-117557533D01*
X99736238Y-117557536D01*
X99800115Y-117754129D01*
X99874587Y-117900288D01*
X99893965Y-117938319D01*
X100015471Y-118105558D01*
X100161642Y-118251729D01*
X100328881Y-118373235D01*
X100375548Y-118397013D01*
X100400084Y-118409515D01*
X100450880Y-118457490D01*
X100467675Y-118525311D01*
X100445137Y-118591446D01*
X100400084Y-118630485D01*
X100328880Y-118666765D01*
X100161639Y-118788273D01*
X100015473Y-118934439D01*
X99893965Y-119101680D01*
X99800115Y-119285870D01*
X99736238Y-119482463D01*
X99736238Y-119482466D01*
X99703900Y-119686641D01*
X99703900Y-119893358D01*
X99736238Y-120097533D01*
X99736238Y-120097536D01*
X99800115Y-120294129D01*
X99862468Y-120416503D01*
X99893965Y-120478319D01*
X100015471Y-120645558D01*
X100161642Y-120791729D01*
X100328881Y-120913235D01*
X100376333Y-120937413D01*
X100400084Y-120949515D01*
X100450880Y-120997490D01*
X100467675Y-121065311D01*
X100445137Y-121131446D01*
X100400084Y-121170485D01*
X100328880Y-121206765D01*
X100161639Y-121328273D01*
X100015473Y-121474439D01*
X99893965Y-121641680D01*
X99800115Y-121825870D01*
X99736238Y-122022463D01*
X99736238Y-122022466D01*
X99703900Y-122226641D01*
X99703900Y-122433358D01*
X99736238Y-122637533D01*
X99736238Y-122637536D01*
X99800115Y-122834129D01*
X99843139Y-122918567D01*
X99893965Y-123018319D01*
X100015471Y-123185558D01*
X100161642Y-123331729D01*
X100328881Y-123453235D01*
X100337089Y-123457417D01*
X100400084Y-123489515D01*
X100450880Y-123537490D01*
X100467675Y-123605311D01*
X100445137Y-123671446D01*
X100400084Y-123710485D01*
X100328880Y-123746765D01*
X100161639Y-123868273D01*
X100015473Y-124014439D01*
X99893965Y-124181680D01*
X99800115Y-124365870D01*
X99736238Y-124562463D01*
X99736238Y-124562466D01*
X99706459Y-124750482D01*
X99676530Y-124813617D01*
X99617218Y-124850548D01*
X99547356Y-124849550D01*
X99489123Y-124810940D01*
X99461009Y-124746976D01*
X99459987Y-124731553D01*
X99459084Y-124492832D01*
X99413339Y-112393519D01*
X99432770Y-112326406D01*
X99485400Y-112280452D01*
X99554521Y-112270247D01*
X99610224Y-112292734D01*
X99663207Y-112331229D01*
X99663209Y-112331230D01*
X99663212Y-112331232D01*
X99817555Y-112409873D01*
X99982299Y-112463402D01*
X100153389Y-112490500D01*
X100153390Y-112490500D01*
X100326610Y-112490500D01*
X100326611Y-112490500D01*
X100497701Y-112463402D01*
X100662445Y-112409873D01*
X100816788Y-112331232D01*
X100956928Y-112229414D01*
X101079414Y-112106928D01*
X101181232Y-111966788D01*
X101259873Y-111812445D01*
X101313402Y-111647701D01*
X101336356Y-111502768D01*
X101366285Y-111439636D01*
X101425596Y-111402704D01*
X101459056Y-111398169D01*
X118107081Y-111429880D01*
G37*
%TD.AperFunction*%
%TA.AperFunction,Conductor*%
G36*
X127952539Y-131610185D02*
G01*
X127998294Y-131662989D01*
X128009500Y-131714500D01*
X128009500Y-132534418D01*
X128009499Y-132617202D01*
X128009499Y-132617203D01*
X128041796Y-132779576D01*
X128041799Y-132779585D01*
X128105153Y-132932538D01*
X128105155Y-132932542D01*
X128105157Y-132932546D01*
X128105160Y-132932550D01*
X128105162Y-132932554D01*
X128153923Y-133005532D01*
X128174800Y-133072209D01*
X128156315Y-133139589D01*
X128153923Y-133143310D01*
X128105162Y-133216287D01*
X128105153Y-133216303D01*
X128041799Y-133369256D01*
X128041796Y-133369265D01*
X128009499Y-133531638D01*
X128009500Y-133577509D01*
X128009500Y-135395500D01*
X127989815Y-135462539D01*
X127937011Y-135508294D01*
X127885500Y-135519500D01*
X127162129Y-135519500D01*
X127162123Y-135519501D01*
X127102516Y-135525908D01*
X126967671Y-135576202D01*
X126967664Y-135576206D01*
X126852455Y-135662452D01*
X126852452Y-135662455D01*
X126766206Y-135777664D01*
X126766202Y-135777671D01*
X126715908Y-135912517D01*
X126712283Y-135946242D01*
X126709501Y-135972123D01*
X126709500Y-135972135D01*
X126709500Y-138267870D01*
X126709501Y-138267876D01*
X126715908Y-138327483D01*
X126766202Y-138462328D01*
X126766203Y-138462330D01*
X126791176Y-138495690D01*
X126815592Y-138561155D01*
X126800740Y-138629428D01*
X126791176Y-138644310D01*
X126766203Y-138677669D01*
X126766202Y-138677671D01*
X126715908Y-138812517D01*
X126710671Y-138861231D01*
X126709501Y-138872123D01*
X126709500Y-138872135D01*
X126709500Y-139143100D01*
X126689815Y-139210139D01*
X126637011Y-139255894D01*
X126585500Y-139267100D01*
X123041802Y-139267100D01*
X122974763Y-139247415D01*
X122954121Y-139230781D01*
X120636205Y-136912863D01*
X120636204Y-136912862D01*
X120617146Y-136900128D01*
X120529264Y-136841408D01*
X120410444Y-136792191D01*
X120410438Y-136792189D01*
X120284307Y-136767100D01*
X120284305Y-136767100D01*
X119734060Y-136767100D01*
X119667021Y-136747415D01*
X119635685Y-136718587D01*
X119592586Y-136662420D01*
X119592584Y-136662418D01*
X119592583Y-136662417D01*
X119470276Y-136568567D01*
X119470272Y-136568565D01*
X119327849Y-136509572D01*
X119327847Y-136509571D01*
X119327846Y-136509571D01*
X119213373Y-136494500D01*
X118406627Y-136494500D01*
X118292153Y-136509571D01*
X118292144Y-136509573D01*
X118282901Y-136513402D01*
X118277793Y-136513950D01*
X118273548Y-136516842D01*
X118243412Y-136517645D01*
X118213431Y-136520868D01*
X118208836Y-136518568D01*
X118203704Y-136518705D01*
X118177919Y-136503089D01*
X118150954Y-136489590D01*
X118147144Y-136484451D01*
X118143939Y-136482511D01*
X118133265Y-136465736D01*
X118124073Y-136453339D01*
X118122374Y-136449868D01*
X118118592Y-136440736D01*
X118116030Y-136436902D01*
X118112373Y-136429428D01*
X118110740Y-136419887D01*
X118102138Y-136399124D01*
X118079737Y-136286503D01*
X118045639Y-136204182D01*
X118019397Y-136140827D01*
X118019390Y-136140814D01*
X117931789Y-136009711D01*
X117931786Y-136009707D01*
X117820292Y-135898213D01*
X117820288Y-135898210D01*
X117689185Y-135810609D01*
X117689172Y-135810602D01*
X117543501Y-135750264D01*
X117543489Y-135750261D01*
X117388845Y-135719500D01*
X117388842Y-135719500D01*
X117231158Y-135719500D01*
X117231155Y-135719500D01*
X117076510Y-135750261D01*
X117076498Y-135750264D01*
X116930827Y-135810602D01*
X116930814Y-135810609D01*
X116799711Y-135898210D01*
X116799707Y-135898213D01*
X116782681Y-135915240D01*
X116721358Y-135948725D01*
X116651666Y-135943741D01*
X116607319Y-135915240D01*
X116590292Y-135898213D01*
X116590288Y-135898210D01*
X116459185Y-135810609D01*
X116459172Y-135810602D01*
X116313501Y-135750264D01*
X116313489Y-135750261D01*
X116158845Y-135719500D01*
X116158842Y-135719500D01*
X116001158Y-135719500D01*
X116001155Y-135719500D01*
X115846510Y-135750261D01*
X115846507Y-135750262D01*
X115846506Y-135750262D01*
X115846503Y-135750263D01*
X115780351Y-135777664D01*
X115758702Y-135786631D01*
X115734289Y-135789255D01*
X115710704Y-135796068D01*
X115700166Y-135792923D01*
X115689232Y-135794099D01*
X115667276Y-135783108D01*
X115643751Y-135776088D01*
X115633966Y-135766433D01*
X115626753Y-135762823D01*
X115617180Y-135752858D01*
X115612307Y-135747184D01*
X115567411Y-135679992D01*
X115480008Y-135592589D01*
X115202405Y-135314986D01*
X118236001Y-135314986D01*
X118246494Y-135417697D01*
X118301641Y-135584119D01*
X118301643Y-135584124D01*
X118393684Y-135733345D01*
X118517654Y-135857315D01*
X118666875Y-135949356D01*
X118666880Y-135949358D01*
X118833302Y-136004505D01*
X118833309Y-136004506D01*
X118936019Y-136014999D01*
X119185999Y-136014999D01*
X119186000Y-136014998D01*
X119186000Y-135252500D01*
X118236001Y-135252500D01*
X118236001Y-135314986D01*
X115202405Y-135314986D01*
X114529881Y-134642462D01*
X114496396Y-134581139D01*
X114501380Y-134511447D01*
X114543252Y-134455514D01*
X114548652Y-134451692D01*
X114607295Y-134412509D01*
X114696509Y-134323295D01*
X114766604Y-134218390D01*
X114814886Y-134101827D01*
X114839500Y-133978084D01*
X114839500Y-132829034D01*
X114859185Y-132761995D01*
X114911989Y-132716240D01*
X114981147Y-132706296D01*
X115044703Y-132735321D01*
X115074245Y-132776291D01*
X115075047Y-132775863D01*
X115077920Y-132781239D01*
X115133882Y-132864991D01*
X115133881Y-132864991D01*
X115146586Y-132884005D01*
X115146589Y-132884008D01*
X115233422Y-132970841D01*
X115266906Y-133032162D01*
X115261922Y-133101854D01*
X115247622Y-133127678D01*
X115247631Y-133127684D01*
X115247345Y-133128178D01*
X115244122Y-133134000D01*
X115243566Y-133134723D01*
X115184572Y-133277150D01*
X115184571Y-133277154D01*
X115169500Y-133391619D01*
X115169500Y-134198372D01*
X115184571Y-134312847D01*
X115242169Y-134451902D01*
X115243567Y-134455276D01*
X115337417Y-134577583D01*
X115459724Y-134671433D01*
X115602154Y-134730429D01*
X115716627Y-134745500D01*
X116473372Y-134745499D01*
X116587846Y-134730429D01*
X116730276Y-134671433D01*
X116794513Y-134622142D01*
X116859682Y-134596947D01*
X116928127Y-134610985D01*
X116945487Y-134622142D01*
X117009722Y-134671432D01*
X117009725Y-134671434D01*
X117099537Y-134708634D01*
X117152154Y-134730429D01*
X117266627Y-134745500D01*
X118023372Y-134745499D01*
X118137846Y-134730429D01*
X118137847Y-134730428D01*
X118144451Y-134729559D01*
X118213486Y-134740325D01*
X118230801Y-134752500D01*
X119312000Y-134752500D01*
X119379039Y-134772185D01*
X119424794Y-134824989D01*
X119436000Y-134876500D01*
X119436000Y-135002500D01*
X119562000Y-135002500D01*
X119629039Y-135022185D01*
X119674794Y-135074989D01*
X119686000Y-135126500D01*
X119686000Y-136014999D01*
X119935972Y-136014999D01*
X119935986Y-136014998D01*
X120038697Y-136004505D01*
X120205119Y-135949358D01*
X120205124Y-135949356D01*
X120354342Y-135857317D01*
X120452964Y-135758695D01*
X120514287Y-135725210D01*
X120583979Y-135730194D01*
X120628327Y-135758695D01*
X120727344Y-135857712D01*
X120876666Y-135949814D01*
X120908105Y-135960231D01*
X120965549Y-136000003D01*
X120992372Y-136064519D01*
X120993100Y-136077937D01*
X120993100Y-136250305D01*
X120993100Y-136250307D01*
X120993099Y-136250307D01*
X121013417Y-136352446D01*
X121015435Y-136362589D01*
X121018191Y-136376444D01*
X121067408Y-136495264D01*
X121067897Y-136495996D01*
X121070586Y-136503081D01*
X121070696Y-136504509D01*
X121076271Y-136522887D01*
X121100261Y-136643491D01*
X121100264Y-136643501D01*
X121160602Y-136789172D01*
X121160609Y-136789185D01*
X121248210Y-136920288D01*
X121248213Y-136920292D01*
X121359707Y-137031786D01*
X121359711Y-137031789D01*
X121490814Y-137119390D01*
X121490827Y-137119397D01*
X121636498Y-137179735D01*
X121636503Y-137179737D01*
X121791153Y-137210499D01*
X121791156Y-137210500D01*
X121791158Y-137210500D01*
X121948844Y-137210500D01*
X121948845Y-137210499D01*
X122103497Y-137179737D01*
X122249179Y-137119394D01*
X122380289Y-137031789D01*
X122491789Y-136920289D01*
X122579394Y-136789179D01*
X122639737Y-136643497D01*
X122670500Y-136488842D01*
X122670500Y-136331158D01*
X122670500Y-136331155D01*
X122670499Y-136331153D01*
X122665548Y-136306261D01*
X122639737Y-136176503D01*
X122614230Y-136114923D01*
X122579397Y-136030827D01*
X122579395Y-136030823D01*
X122579394Y-136030821D01*
X122568822Y-136014999D01*
X122560690Y-136002828D01*
X122539812Y-135936151D01*
X122558296Y-135868771D01*
X122576103Y-135846264D01*
X122688712Y-135733656D01*
X122780814Y-135584334D01*
X122835999Y-135417797D01*
X122846500Y-135315009D01*
X122846499Y-134689992D01*
X122842628Y-134652100D01*
X122855397Y-134583409D01*
X122903277Y-134532524D01*
X122965982Y-134515499D01*
X123749372Y-134515499D01*
X123749373Y-134515499D01*
X123787530Y-134510475D01*
X123863846Y-134500429D01*
X123933549Y-134471556D01*
X124003016Y-134464088D01*
X124028446Y-134471555D01*
X124098154Y-134500429D01*
X124212627Y-134515500D01*
X125019372Y-134515499D01*
X125133846Y-134500429D01*
X125198549Y-134473627D01*
X125268016Y-134466159D01*
X125293443Y-134473625D01*
X125358154Y-134500429D01*
X125472627Y-134515500D01*
X126279372Y-134515499D01*
X126393846Y-134500429D01*
X126536276Y-134441433D01*
X126658583Y-134347583D01*
X126752433Y-134225276D01*
X126811429Y-134082846D01*
X126826500Y-133968373D01*
X126826499Y-133211628D01*
X126811429Y-133097154D01*
X126788819Y-133042569D01*
X126752434Y-132954725D01*
X126752432Y-132954722D01*
X126703142Y-132890487D01*
X126677947Y-132825318D01*
X126691985Y-132756873D01*
X126703142Y-132739513D01*
X126722258Y-132714600D01*
X126752433Y-132675276D01*
X126756021Y-132666615D01*
X126776488Y-132617202D01*
X126811429Y-132532846D01*
X126826500Y-132418373D01*
X126826499Y-131714499D01*
X126846183Y-131647461D01*
X126898987Y-131601706D01*
X126950499Y-131590500D01*
X127885500Y-131590500D01*
X127952539Y-131610185D01*
G37*
%TD.AperFunction*%
%TA.AperFunction,Conductor*%
G36*
X113713296Y-128007907D02*
G01*
X113742327Y-128009982D01*
X113748447Y-128013915D01*
X113753482Y-128014776D01*
X113782657Y-128034637D01*
X113784703Y-128036507D01*
X113790705Y-128042509D01*
X113792804Y-128043911D01*
X113798657Y-128049261D01*
X113815113Y-128076425D01*
X113832994Y-128102666D01*
X113833086Y-128106090D01*
X113834861Y-128109020D01*
X113839000Y-128140790D01*
X113839000Y-128169690D01*
X113885673Y-128160406D01*
X113885679Y-128160404D01*
X113900890Y-128154104D01*
X113970359Y-128146633D01*
X113995796Y-128154102D01*
X114012173Y-128160886D01*
X114131442Y-128184610D01*
X114135911Y-128185499D01*
X114135914Y-128185500D01*
X114224500Y-128185500D01*
X114291539Y-128205185D01*
X114337294Y-128257989D01*
X114348500Y-128309500D01*
X114348500Y-128398088D01*
X114373112Y-128521819D01*
X114373115Y-128521831D01*
X114379626Y-128537550D01*
X114387093Y-128607020D01*
X114379626Y-128632450D01*
X114373115Y-128648168D01*
X114373112Y-128648180D01*
X114348500Y-128771911D01*
X114348500Y-128898088D01*
X114373112Y-129021819D01*
X114373115Y-129021831D01*
X114379626Y-129037550D01*
X114382036Y-129059976D01*
X114389013Y-129081431D01*
X114386064Y-129097454D01*
X114387093Y-129107020D01*
X114384997Y-129116496D01*
X114382852Y-129124662D01*
X114373114Y-129148173D01*
X114361981Y-129204137D01*
X114361026Y-129207776D01*
X114344845Y-129234622D01*
X114330324Y-129262383D01*
X114326266Y-129265449D01*
X114324960Y-129267617D01*
X114320488Y-129269816D01*
X114307320Y-129279769D01*
X114307831Y-129280534D01*
X114302769Y-129283916D01*
X114302767Y-129283917D01*
X114266190Y-129308357D01*
X114199989Y-129352590D01*
X114199988Y-129352591D01*
X113700156Y-129852424D01*
X113638833Y-129885909D01*
X113636667Y-129886360D01*
X113516508Y-129910261D01*
X113516498Y-129910264D01*
X113370827Y-129970602D01*
X113370814Y-129970609D01*
X113239711Y-130058210D01*
X113239707Y-130058213D01*
X113128213Y-130169707D01*
X113128210Y-130169711D01*
X113040609Y-130300814D01*
X113040602Y-130300827D01*
X112980264Y-130446498D01*
X112980261Y-130446510D01*
X112949500Y-130601153D01*
X112949500Y-130758846D01*
X112980261Y-130913489D01*
X112980264Y-130913501D01*
X113040602Y-131059172D01*
X113040606Y-131059179D01*
X113049997Y-131073234D01*
X113050601Y-131074137D01*
X113071480Y-131140814D01*
X113071500Y-131143030D01*
X113071500Y-131900443D01*
X113051815Y-131967482D01*
X112999011Y-132013237D01*
X112929853Y-132023181D01*
X112900049Y-132015005D01*
X112885827Y-132009114D01*
X112885823Y-132009113D01*
X112885819Y-132009112D01*
X112762087Y-131984500D01*
X112762084Y-131984500D01*
X112635916Y-131984500D01*
X112635913Y-131984500D01*
X112512180Y-132009112D01*
X112512168Y-132009115D01*
X112496450Y-132015626D01*
X112426980Y-132023093D01*
X112401550Y-132015626D01*
X112385831Y-132009115D01*
X112385819Y-132009112D01*
X112262087Y-131984500D01*
X112262084Y-131984500D01*
X112135916Y-131984500D01*
X112135913Y-131984500D01*
X112012180Y-132009112D01*
X112012168Y-132009115D01*
X111996450Y-132015626D01*
X111926980Y-132023093D01*
X111924138Y-132022546D01*
X111912509Y-132020166D01*
X111885827Y-132009114D01*
X111762084Y-131984500D01*
X111738237Y-131984500D01*
X111725933Y-131981982D01*
X111705711Y-131971262D01*
X111683756Y-131964815D01*
X111675433Y-131955210D01*
X111664202Y-131949256D01*
X111652986Y-131929304D01*
X111638001Y-131912011D01*
X111636192Y-131899430D01*
X111629963Y-131888350D01*
X111631314Y-131865505D01*
X111628057Y-131842853D01*
X111629178Y-131836308D01*
X111660500Y-131678844D01*
X111660500Y-131521155D01*
X111660499Y-131521153D01*
X111653958Y-131488271D01*
X111629737Y-131366503D01*
X111614818Y-131330485D01*
X111569397Y-131220827D01*
X111569390Y-131220814D01*
X111481789Y-131089711D01*
X111481786Y-131089707D01*
X111370292Y-130978213D01*
X111370288Y-130978210D01*
X111239185Y-130890609D01*
X111239172Y-130890602D01*
X111093501Y-130830264D01*
X111093489Y-130830261D01*
X110938845Y-130799500D01*
X110938842Y-130799500D01*
X110781158Y-130799500D01*
X110781153Y-130799500D01*
X110685212Y-130818584D01*
X110679279Y-130818053D01*
X110673767Y-130820310D01*
X110644879Y-130814975D01*
X110615620Y-130812357D01*
X110610915Y-130808702D01*
X110605059Y-130807621D01*
X110583643Y-130787516D01*
X110560443Y-130769494D01*
X110557342Y-130762826D01*
X110554119Y-130759800D01*
X110545904Y-130738227D01*
X110540747Y-130727137D01*
X110540002Y-130724169D01*
X110524886Y-130648173D01*
X110514880Y-130624018D01*
X110512661Y-130615170D01*
X110513703Y-130589011D01*
X110510905Y-130562987D01*
X110515342Y-130547872D01*
X110515443Y-130545355D01*
X110516542Y-130543785D01*
X110518373Y-130537548D01*
X110524886Y-130521827D01*
X110549500Y-130398084D01*
X110549500Y-130271916D01*
X110549500Y-130271913D01*
X110549499Y-130271911D01*
X110539255Y-130220411D01*
X110524886Y-130148173D01*
X110518374Y-130132454D01*
X110510905Y-130062987D01*
X110518373Y-130037548D01*
X110524886Y-130021827D01*
X110549500Y-129898084D01*
X110549500Y-129771916D01*
X110549500Y-129771913D01*
X110549499Y-129771911D01*
X110540222Y-129725272D01*
X110524886Y-129648173D01*
X110518374Y-129632454D01*
X110510905Y-129562987D01*
X110518373Y-129537548D01*
X110524886Y-129521827D01*
X110549500Y-129398084D01*
X110549500Y-129271916D01*
X110549500Y-129271913D01*
X110549499Y-129271911D01*
X110547464Y-129261680D01*
X110524886Y-129148173D01*
X110518374Y-129132454D01*
X110510905Y-129062987D01*
X110518373Y-129037548D01*
X110524886Y-129021827D01*
X110549500Y-128898084D01*
X110549500Y-128802010D01*
X110569185Y-128734971D01*
X110621989Y-128689216D01*
X110691147Y-128679272D01*
X110754703Y-128708297D01*
X110776602Y-128733119D01*
X110848210Y-128840288D01*
X110848213Y-128840292D01*
X110959707Y-128951786D01*
X110959711Y-128951789D01*
X111090814Y-129039390D01*
X111090827Y-129039397D01*
X111223722Y-129094443D01*
X111236503Y-129099737D01*
X111344867Y-129121292D01*
X111391153Y-129130499D01*
X111391156Y-129130500D01*
X111391158Y-129130500D01*
X111548844Y-129130500D01*
X111548845Y-129130499D01*
X111703497Y-129099737D01*
X111849179Y-129039394D01*
X111980289Y-128951789D01*
X112091789Y-128840289D01*
X112179394Y-128709179D01*
X112239737Y-128563497D01*
X112270500Y-128408842D01*
X112270500Y-128385677D01*
X112272126Y-128377497D01*
X112271211Y-128372421D01*
X112279937Y-128338229D01*
X112282345Y-128332417D01*
X112302386Y-128284035D01*
X112308776Y-128251908D01*
X112312454Y-128244877D01*
X112312737Y-128236945D01*
X112328417Y-128214359D01*
X112341160Y-128190000D01*
X112349072Y-128184610D01*
X112352584Y-128179552D01*
X112382937Y-128161541D01*
X112400890Y-128154104D01*
X112470359Y-128146634D01*
X112495796Y-128154102D01*
X112512173Y-128160886D01*
X112631442Y-128184610D01*
X112635911Y-128185499D01*
X112635914Y-128185500D01*
X112635916Y-128185500D01*
X112762086Y-128185500D01*
X112762087Y-128185499D01*
X112885827Y-128160886D01*
X112901545Y-128154374D01*
X112971013Y-128146905D01*
X112996451Y-128154373D01*
X113012173Y-128160886D01*
X113131442Y-128184610D01*
X113135911Y-128185499D01*
X113135914Y-128185500D01*
X113135916Y-128185500D01*
X113262086Y-128185500D01*
X113262087Y-128185499D01*
X113385827Y-128160886D01*
X113402198Y-128154104D01*
X113471665Y-128146633D01*
X113497106Y-128154103D01*
X113512319Y-128160404D01*
X113512327Y-128160406D01*
X113558999Y-128169690D01*
X113559000Y-128169690D01*
X113559000Y-128140790D01*
X113578685Y-128073751D01*
X113604349Y-128044926D01*
X113607292Y-128042511D01*
X113607291Y-128042511D01*
X113607295Y-128042509D01*
X113611315Y-128038488D01*
X113616794Y-128035496D01*
X113620309Y-128030334D01*
X113647091Y-128018950D01*
X113672635Y-128005001D01*
X113678864Y-128005446D01*
X113684611Y-128003004D01*
X113713296Y-128007907D01*
G37*
%TD.AperFunction*%
%TA.AperFunction,Conductor*%
G36*
X104361257Y-115730185D02*
G01*
X104381899Y-115746819D01*
X104988961Y-116353883D01*
X104988967Y-116353888D01*
X105011832Y-116369166D01*
X105152827Y-116463376D01*
X105152840Y-116463383D01*
X105281581Y-116516709D01*
X105299669Y-116524201D01*
X105334912Y-116538799D01*
X105381953Y-116548156D01*
X105399780Y-116551702D01*
X105528204Y-116577248D01*
X105528207Y-116577248D01*
X105528208Y-116577248D01*
X105725288Y-116577248D01*
X107090635Y-116577248D01*
X107157674Y-116596933D01*
X107203429Y-116649737D01*
X107213573Y-116717432D01*
X107211667Y-116731909D01*
X107209500Y-116748370D01*
X107209500Y-117505120D01*
X107224571Y-117619594D01*
X107224573Y-117619600D01*
X107250465Y-117682110D01*
X107257934Y-117751579D01*
X107239006Y-117798453D01*
X107170609Y-117900814D01*
X107170602Y-117900827D01*
X107110264Y-118046498D01*
X107110261Y-118046510D01*
X107079500Y-118201153D01*
X107079500Y-118358846D01*
X107110261Y-118513489D01*
X107110264Y-118513501D01*
X107170602Y-118659172D01*
X107170609Y-118659185D01*
X107258210Y-118790288D01*
X107258213Y-118790292D01*
X107369707Y-118901786D01*
X107369711Y-118901789D01*
X107500814Y-118989390D01*
X107500827Y-118989397D01*
X107646498Y-119049735D01*
X107646503Y-119049737D01*
X107801153Y-119080499D01*
X107801156Y-119080500D01*
X107801158Y-119080500D01*
X107958844Y-119080500D01*
X107958845Y-119080499D01*
X108113497Y-119049737D01*
X108259179Y-118989394D01*
X108390289Y-118901789D01*
X108501789Y-118790289D01*
X108589394Y-118659179D01*
X108590602Y-118656264D01*
X108603648Y-118624767D01*
X108649737Y-118513497D01*
X108665105Y-118436231D01*
X108666699Y-118432081D01*
X108666614Y-118429603D01*
X108673988Y-118413094D01*
X108680163Y-118397013D01*
X108681817Y-118394232D01*
X108738592Y-118309264D01*
X108752811Y-118274935D01*
X108757385Y-118267250D01*
X108776692Y-118249321D01*
X108793221Y-118228809D01*
X108801889Y-118225923D01*
X108808585Y-118219706D01*
X108834517Y-118215062D01*
X108859514Y-118206742D01*
X108870785Y-118208568D01*
X108877361Y-118207391D01*
X108886200Y-118211066D01*
X108907277Y-118214481D01*
X108990017Y-118245341D01*
X108990016Y-118245341D01*
X108996944Y-118246085D01*
X109049627Y-118251750D01*
X110250372Y-118251749D01*
X110309983Y-118245341D01*
X110436058Y-118198317D01*
X110479391Y-118190500D01*
X110776420Y-118190500D01*
X110873962Y-118171096D01*
X110921413Y-118161658D01*
X111057995Y-118105084D01*
X111137070Y-118052248D01*
X111146376Y-118046029D01*
X111213051Y-118025157D01*
X111280431Y-118043645D01*
X111314521Y-118074823D01*
X111339954Y-118108796D01*
X111339955Y-118108796D01*
X111339956Y-118108798D01*
X111455164Y-118195043D01*
X111455171Y-118195047D01*
X111590017Y-118245341D01*
X111590016Y-118245341D01*
X111596944Y-118246085D01*
X111649627Y-118251750D01*
X112625500Y-118251749D01*
X112692539Y-118271433D01*
X112738294Y-118324237D01*
X112749500Y-118375749D01*
X112749500Y-118428846D01*
X112780261Y-118583489D01*
X112780264Y-118583501D01*
X112840602Y-118729172D01*
X112840609Y-118729185D01*
X112928210Y-118860288D01*
X112928213Y-118860292D01*
X113039707Y-118971786D01*
X113039711Y-118971789D01*
X113067037Y-118990048D01*
X113111842Y-119043660D01*
X113120549Y-119112985D01*
X113090395Y-119176013D01*
X113085827Y-119180831D01*
X111087863Y-121178794D01*
X111087862Y-121178795D01*
X111027472Y-121269178D01*
X111027470Y-121269181D01*
X111016409Y-121285733D01*
X111016406Y-121285738D01*
X110967191Y-121404555D01*
X110967189Y-121404561D01*
X110946664Y-121507746D01*
X110914279Y-121569657D01*
X110906301Y-121577223D01*
X110897826Y-121584574D01*
X110843135Y-121616919D01*
X110729227Y-121730826D01*
X110725900Y-121733713D01*
X110697964Y-121746488D01*
X110671004Y-121761210D01*
X110666482Y-121760886D01*
X110662360Y-121762772D01*
X110631957Y-121758417D01*
X110601312Y-121756226D01*
X110596912Y-121753398D01*
X110593196Y-121752866D01*
X110584868Y-121745657D01*
X110556965Y-121727725D01*
X110487967Y-121658727D01*
X110454482Y-121597404D01*
X110459466Y-121527712D01*
X110461087Y-121523593D01*
X110504942Y-121417716D01*
X110504943Y-121417714D01*
X110520000Y-121303344D01*
X110520000Y-121150000D01*
X109845000Y-121150000D01*
X109845000Y-121355000D01*
X109854976Y-121364976D01*
X109888039Y-121374685D01*
X109933794Y-121427489D01*
X109945000Y-121479000D01*
X109945000Y-123160000D01*
X109996000Y-123160000D01*
X110063039Y-123179685D01*
X110108794Y-123232489D01*
X110120000Y-123284000D01*
X110120000Y-124116000D01*
X110100315Y-124183039D01*
X110047511Y-124228794D01*
X109996000Y-124240000D01*
X109744000Y-124240000D01*
X109676961Y-124220315D01*
X109631206Y-124167511D01*
X109620000Y-124116000D01*
X109620000Y-123965000D01*
X109569000Y-123965000D01*
X109501961Y-123945315D01*
X109456206Y-123892511D01*
X109445000Y-123841000D01*
X109445000Y-122910000D01*
X108695000Y-122910000D01*
X108695000Y-123250649D01*
X108697899Y-123287489D01*
X108697900Y-123287495D01*
X108743716Y-123445193D01*
X108743717Y-123445196D01*
X108827314Y-123586552D01*
X108827321Y-123586561D01*
X108917164Y-123676404D01*
X108917620Y-123677239D01*
X108918449Y-123677708D01*
X108934334Y-123707850D01*
X108950649Y-123737727D01*
X108950727Y-123738953D01*
X108951025Y-123739518D01*
X108951325Y-123748273D01*
X108953023Y-123774756D01*
X108944540Y-123872967D01*
X108933711Y-123900739D01*
X108925315Y-123929335D01*
X108921157Y-123932937D01*
X108919159Y-123938064D01*
X108895030Y-123955576D01*
X108872511Y-123975090D01*
X108867067Y-123975872D01*
X108862614Y-123979105D01*
X108832852Y-123980792D01*
X108803353Y-123985034D01*
X108798348Y-123982748D01*
X108792856Y-123983060D01*
X108766911Y-123968391D01*
X108739797Y-123956009D01*
X108733319Y-123949977D01*
X105354495Y-120571153D01*
X106169500Y-120571153D01*
X106169500Y-120728846D01*
X106200261Y-120883489D01*
X106200264Y-120883501D01*
X106260602Y-121029172D01*
X106260609Y-121029185D01*
X106348210Y-121160288D01*
X106348213Y-121160292D01*
X106459707Y-121271786D01*
X106459711Y-121271789D01*
X106590814Y-121359390D01*
X106590827Y-121359397D01*
X106689551Y-121400289D01*
X106736503Y-121419737D01*
X106834983Y-121439325D01*
X106842677Y-121442513D01*
X106847836Y-121442605D01*
X106879674Y-121457837D01*
X106892583Y-121466462D01*
X106892584Y-121466464D01*
X106903485Y-121473747D01*
X106910736Y-121478592D01*
X107029556Y-121527809D01*
X107089296Y-121539692D01*
X107147936Y-121551357D01*
X107209847Y-121583742D01*
X107222115Y-121597480D01*
X107287417Y-121682583D01*
X107409724Y-121776433D01*
X107552154Y-121835429D01*
X107666627Y-121850500D01*
X108423372Y-121850499D01*
X108537846Y-121835429D01*
X108546311Y-121831922D01*
X108615775Y-121824451D01*
X108678256Y-121855723D01*
X108713912Y-121915810D01*
X108712842Y-121981075D01*
X108697900Y-122032507D01*
X108697899Y-122032510D01*
X108695000Y-122069350D01*
X108695000Y-122410000D01*
X109445000Y-122410000D01*
X109445000Y-121980000D01*
X109435023Y-121970023D01*
X109401961Y-121960315D01*
X109356206Y-121907511D01*
X109345000Y-121856000D01*
X109345000Y-120650000D01*
X109845000Y-120650000D01*
X110520000Y-120650000D01*
X110520000Y-120496655D01*
X110504943Y-120382285D01*
X110504941Y-120382280D01*
X110445999Y-120239980D01*
X110445999Y-120239979D01*
X110352226Y-120117773D01*
X110230019Y-120024000D01*
X110087719Y-119965058D01*
X110087714Y-119965056D01*
X109973345Y-119950000D01*
X109845000Y-119950000D01*
X109845000Y-120650000D01*
X109345000Y-120650000D01*
X109345000Y-119950000D01*
X109216655Y-119950000D01*
X109102285Y-119965056D01*
X109102280Y-119965058D01*
X108959980Y-120024000D01*
X108959975Y-120024003D01*
X108895896Y-120073173D01*
X108830727Y-120098367D01*
X108762282Y-120084329D01*
X108744924Y-120073173D01*
X108680276Y-120023567D01*
X108680274Y-120023565D01*
X108537849Y-119964572D01*
X108537847Y-119964571D01*
X108537846Y-119964571D01*
X108423373Y-119949500D01*
X107666625Y-119949500D01*
X107552156Y-119964569D01*
X107552154Y-119964570D01*
X107510226Y-119981937D01*
X107440756Y-119989404D01*
X107393884Y-119970477D01*
X107349184Y-119940609D01*
X107349181Y-119940607D01*
X107349179Y-119940606D01*
X107349176Y-119940604D01*
X107349171Y-119940602D01*
X107203501Y-119880264D01*
X107203489Y-119880261D01*
X107048845Y-119849500D01*
X107048842Y-119849500D01*
X106891158Y-119849500D01*
X106891155Y-119849500D01*
X106736510Y-119880261D01*
X106736498Y-119880264D01*
X106590827Y-119940602D01*
X106590814Y-119940609D01*
X106459711Y-120028210D01*
X106459707Y-120028213D01*
X106348213Y-120139707D01*
X106348210Y-120139711D01*
X106260609Y-120270814D01*
X106260602Y-120270827D01*
X106200264Y-120416498D01*
X106200261Y-120416510D01*
X106169500Y-120571153D01*
X105354495Y-120571153D01*
X104066204Y-119282862D01*
X104046516Y-119269707D01*
X103959264Y-119211408D01*
X103959262Y-119211407D01*
X103840433Y-119162186D01*
X103839406Y-119161875D01*
X103838934Y-119161565D01*
X103834816Y-119159860D01*
X103835139Y-119159078D01*
X103780972Y-119123571D01*
X103768977Y-119105582D01*
X103768576Y-119105829D01*
X103766039Y-119101690D01*
X103766035Y-119101681D01*
X103644529Y-118934442D01*
X103498358Y-118788271D01*
X103331119Y-118666765D01*
X103259914Y-118630484D01*
X103209119Y-118582511D01*
X103192324Y-118514690D01*
X103214861Y-118448555D01*
X103259914Y-118409515D01*
X103331119Y-118373235D01*
X103498358Y-118251729D01*
X103644529Y-118105558D01*
X103766035Y-117938319D01*
X103859883Y-117754132D01*
X103883284Y-117682110D01*
X103923761Y-117557536D01*
X103923761Y-117557535D01*
X103923762Y-117557532D01*
X103956100Y-117353359D01*
X103956100Y-117146641D01*
X103923762Y-116942468D01*
X103923761Y-116942464D01*
X103923761Y-116942463D01*
X103859884Y-116745870D01*
X103810902Y-116649737D01*
X103766035Y-116561681D01*
X103644529Y-116394442D01*
X103498358Y-116248271D01*
X103331119Y-116126765D01*
X103259914Y-116090484D01*
X103209119Y-116042511D01*
X103192324Y-115974690D01*
X103214861Y-115908555D01*
X103259914Y-115869515D01*
X103331119Y-115833235D01*
X103467455Y-115734181D01*
X103533260Y-115710702D01*
X103540339Y-115710500D01*
X104294218Y-115710500D01*
X104361257Y-115730185D01*
G37*
%TD.AperFunction*%
%TD*%
M02*
